<?xml version="1.0" encoding="UTF-8" ?>
<!DOCTYPE svg PUBLIC "-//W3C//DTD SVG 1.1//EN" "http://www.w3.org/Graphics/SVG/1.1/DTD/svg11.dtd">
<svg width="430pt" height="430pt" viewBox="0 0 430 430" version="1.1" xmlns="http://www.w3.org/2000/svg">
<g id="#ffffffff">
<path fill="#ffffff" opacity="1.00" d=" M 0.00 0.00 L 430.00 0.00 L 430.00 430.00 L 0.00 430.00 L 0.00 0.00 M 30.01 30.01 C 29.99 53.34 30.00 76.68 30.01 100.01 C 53.34 99.99 76.67 100.01 100.00 100.00 C 100.01 76.66 100.01 53.33 100.00 30.00 C 76.67 30.01 53.34 29.99 30.01 30.01 M 130.08 30.24 C 129.72 36.75 130.35 43.31 129.81 49.81 C 126.58 50.34 123.26 49.93 120.00 49.97 C 120.00 46.65 120.00 43.32 120.00 40.00 C 116.67 40.00 113.33 40.00 110.00 40.00 C 110.00 60.00 109.99 80.01 110.01 100.01 C 113.34 100.00 116.67 100.01 120.00 100.00 C 120.00 103.33 120.00 106.66 120.00 110.00 C 106.67 110.00 93.33 110.00 80.00 110.00 C 80.00 120.00 80.00 130.00 80.00 140.00 C 86.66 140.01 93.33 140.00 100.00 140.00 C 100.01 136.67 100.01 133.34 100.00 130.01 C 103.33 130.00 106.66 130.01 110.00 130.01 C 109.99 133.34 109.98 136.67 110.00 140.01 C 113.33 140.00 116.67 140.01 120.00 140.00 C 120.00 143.33 120.00 146.66 120.00 150.00 C 116.67 150.00 113.34 150.00 110.01 150.01 C 110.00 153.34 110.00 156.67 110.00 160.00 C 113.33 160.00 116.67 160.00 120.00 160.00 C 120.00 166.67 120.00 173.33 120.00 180.00 C 126.67 180.00 133.34 180.01 140.01 180.00 C 140.00 183.33 139.99 186.66 140.00 190.00 C 136.66 189.99 133.33 189.99 130.00 189.99 C 130.01 193.33 130.01 196.66 129.99 200.00 C 136.66 200.00 143.33 200.00 150.00 200.00 C 149.99 196.67 150.00 193.34 150.01 190.01 C 155.67 189.98 161.33 190.03 166.99 190.00 C 171.79 181.37 180.49 175.35 189.91 172.77 C 189.95 172.08 190.02 170.69 190.06 170.00 C 196.62 169.45 202.96 171.17 209.46 171.73 C 209.70 171.32 210.19 170.50 210.43 170.09 C 216.94 169.83 223.47 170.09 230.00 170.01 C 229.99 166.67 229.99 163.34 230.00 160.00 C 233.33 160.00 236.66 160.00 240.00 160.00 C 240.00 163.33 240.00 166.66 240.00 170.00 C 243.33 170.00 246.66 170.00 249.99 170.00 C 250.01 180.01 250.01 190.01 250.00 200.01 C 253.33 200.01 256.67 200.01 260.00 199.99 C 260.01 193.33 259.99 186.67 260.00 180.00 C 266.67 179.99 273.33 180.02 280.00 180.00 C 280.00 176.67 279.99 173.33 280.00 170.00 C 283.33 170.00 286.66 170.00 289.99 169.99 C 290.00 166.66 290.00 163.33 290.00 160.00 C 286.66 160.00 283.33 160.00 280.00 160.00 C 280.00 156.67 280.00 153.33 280.00 150.00 C 273.33 150.00 266.66 150.00 259.99 149.99 C 259.99 146.66 259.99 143.33 260.00 140.00 C 266.67 139.99 273.33 140.01 280.00 140.00 C 280.00 133.33 280.00 126.67 280.00 120.00 C 283.33 120.00 286.65 120.00 289.98 120.00 C 289.92 116.73 290.30 113.42 289.82 110.18 C 286.58 109.70 283.27 110.08 280.00 110.02 C 280.00 103.34 280.00 96.67 280.00 90.00 C 276.67 90.00 273.34 90.00 270.01 90.01 C 269.98 103.34 270.02 116.67 269.99 130.01 C 266.66 130.01 263.33 130.01 260.00 130.00 C 259.99 123.33 260.01 116.67 260.01 110.00 C 253.34 109.99 246.67 110.00 240.00 110.00 C 240.00 103.33 240.00 96.67 240.00 90.00 C 243.33 90.00 246.66 90.00 249.99 90.00 C 249.98 93.34 250.00 96.67 250.01 100.01 C 253.34 100.00 256.67 100.01 260.00 100.00 C 260.00 93.33 260.01 86.67 260.00 80.00 C 256.66 80.00 253.33 79.99 250.00 80.00 C 250.00 76.67 250.00 73.34 249.99 70.01 C 246.66 70.00 243.33 70.00 240.00 70.00 C 239.99 66.67 240.00 63.34 240.00 60.00 C 243.33 60.01 246.66 60.00 249.99 60.01 C 250.00 53.34 250.00 46.67 250.00 40.00 C 246.66 40.00 243.33 40.00 240.00 40.00 C 240.00 43.33 240.00 46.67 240.00 50.00 C 229.99 50.00 219.99 49.99 209.99 50.01 C 209.99 53.34 210.00 56.67 210.01 60.00 C 206.67 59.99 203.33 59.99 200.00 60.00 C 200.00 53.33 200.00 46.67 200.00 40.00 C 203.33 40.00 206.67 40.00 210.00 40.00 C 210.00 36.67 210.00 33.34 209.99 30.01 C 199.99 29.99 190.00 30.01 180.00 29.99 C 179.98 39.99 180.01 50.00 180.00 60.00 C 173.33 60.01 166.66 60.01 160.00 59.99 C 160.00 56.66 160.00 53.33 160.00 50.00 C 153.33 50.00 146.67 50.00 140.00 50.01 C 140.00 46.67 140.00 43.34 140.00 40.00 C 146.67 40.00 153.33 40.00 160.00 40.00 C 160.00 36.67 160.00 33.33 160.00 30.00 C 150.04 30.19 139.94 29.64 130.08 30.24 M 220.00 30.00 C 219.99 33.33 219.99 36.66 220.00 40.00 C 226.67 40.00 233.33 40.00 240.00 40.00 C 240.00 36.67 240.00 33.33 240.00 30.00 C 233.33 30.00 226.66 29.99 220.00 30.00 M 260.00 30.00 C 259.99 33.33 259.99 36.67 260.00 40.00 C 263.33 40.00 266.66 40.00 270.00 40.00 C 269.99 36.66 269.99 33.33 270.00 29.99 C 266.66 29.99 263.33 29.99 260.00 30.00 M 290.00 29.99 C 290.00 36.66 290.01 43.33 289.99 49.99 C 286.66 50.00 283.33 50.00 280.00 50.00 C 280.00 56.67 280.00 63.34 280.00 70.01 C 283.33 70.00 286.66 70.00 289.99 70.00 C 289.99 66.66 290.01 63.33 290.01 60.00 C 293.34 60.01 296.67 60.01 300.00 60.00 C 300.00 50.00 300.01 40.00 300.00 30.00 C 296.66 29.99 293.33 29.99 290.00 29.99 M 330.00 29.99 C 330.00 53.33 330.00 76.67 330.01 100.01 C 353.34 99.99 376.67 100.01 400.00 100.00 C 400.00 76.67 400.00 53.33 400.00 30.00 C 376.67 30.00 353.34 30.01 330.00 29.99 M 270.00 40.00 C 270.00 43.33 270.00 46.66 270.01 49.99 C 273.34 50.00 276.67 50.00 280.00 50.00 C 280.00 46.67 280.00 43.33 280.00 40.00 C 276.66 40.00 273.33 40.00 270.00 40.00 M 310.00 40.00 C 310.00 50.00 310.01 59.99 309.99 69.99 C 313.32 70.00 316.66 70.00 320.00 70.00 C 320.00 60.00 320.00 50.00 320.00 40.00 C 316.66 40.00 313.33 40.00 310.00 40.00 M 260.00 59.99 C 259.99 63.32 259.99 66.65 259.99 69.98 C 263.14 69.74 266.53 70.68 269.52 69.52 C 270.68 66.53 269.74 63.14 269.99 59.99 C 266.66 59.99 263.33 60.00 260.00 59.99 M 270.17 70.17 C 269.69 73.42 270.10 76.73 270.01 80.00 C 273.34 80.00 276.67 80.00 280.00 80.00 C 280.00 76.67 280.00 73.34 280.00 70.01 C 276.73 70.10 273.42 69.70 270.17 70.17 M 290.00 80.00 C 290.03 89.41 289.97 98.81 289.99 108.22 C 290.10 108.55 290.33 109.23 290.44 109.56 C 296.80 110.66 303.50 109.66 309.99 109.99 C 310.00 113.33 310.00 116.66 310.00 120.00 C 316.66 120.00 323.33 120.00 330.00 120.00 C 330.00 116.67 330.00 113.34 329.99 110.01 C 326.66 110.00 323.33 110.00 320.00 110.00 C 320.00 100.00 320.00 90.00 320.00 80.00 C 316.66 80.00 313.33 80.00 310.00 80.00 C 310.00 86.67 310.00 93.34 309.99 100.01 C 306.66 100.01 303.33 100.01 300.00 100.00 C 299.99 93.33 300.01 86.67 300.00 80.00 C 296.67 80.00 293.33 80.00 290.00 80.00 M 50.00 109.99 C 50.00 113.33 50.01 116.66 50.00 120.00 C 46.67 120.00 43.33 120.00 40.00 120.00 C 40.00 123.33 40.00 126.67 40.00 130.00 C 36.67 130.00 33.34 130.00 30.01 130.00 C 29.99 150.00 29.99 170.00 30.01 189.99 C 33.34 190.00 36.67 190.00 40.00 190.00 C 40.00 193.33 40.00 196.67 40.00 200.00 C 36.67 200.00 33.33 200.00 30.00 200.00 C 30.00 210.00 29.99 220.00 30.01 230.00 C 33.34 230.00 36.67 230.00 40.00 230.00 C 40.00 233.33 40.00 236.67 40.00 240.00 C 46.67 240.00 53.34 240.00 60.00 240.00 C 59.99 243.35 60.00 246.70 59.99 250.05 C 63.11 250.21 66.56 249.26 69.47 250.53 C 69.61 250.84 69.88 251.46 70.02 251.77 C 70.08 257.84 69.95 263.92 70.01 270.00 C 73.34 270.00 76.67 270.00 80.00 270.00 C 80.00 273.33 80.00 276.66 80.00 280.00 C 76.67 280.00 73.33 280.00 70.00 280.00 C 70.00 283.33 70.00 286.66 70.01 289.99 C 73.34 290.00 76.67 290.00 80.00 290.00 C 80.00 296.67 80.00 303.35 80.00 310.02 C 83.27 310.07 86.58 309.69 89.81 310.18 C 90.32 313.42 89.93 316.73 89.98 319.99 C 93.32 320.00 96.66 320.00 100.00 320.00 C 100.00 316.65 100.00 313.30 100.01 309.96 C 96.85 309.81 93.46 310.64 90.46 309.54 C 89.37 306.53 90.17 303.14 90.04 299.99 C 96.69 299.99 103.34 300.02 109.99 300.00 C 109.99 303.33 109.99 306.66 110.01 309.99 C 113.34 310.00 116.67 310.00 120.00 310.00 C 120.00 313.33 120.00 316.66 120.00 320.00 C 116.67 320.00 113.33 320.00 110.00 320.00 C 110.00 330.00 109.99 339.99 110.00 349.99 C 113.33 350.00 116.66 350.00 120.00 350.00 C 120.00 346.67 120.00 343.33 120.00 340.00 C 123.34 340.00 126.67 340.00 130.01 339.99 C 130.00 343.32 129.99 346.66 129.99 349.99 C 133.32 349.99 136.66 350.00 140.00 350.01 C 139.99 353.33 139.99 356.66 140.00 360.00 C 143.33 360.00 146.67 360.00 150.00 360.00 C 150.00 363.33 150.00 366.66 149.99 370.00 C 146.66 370.01 143.32 370.01 139.99 370.00 C 139.99 373.33 139.99 376.66 140.00 380.00 C 136.67 379.99 133.34 379.99 130.01 380.00 C 130.00 386.66 130.01 393.33 130.00 400.00 C 133.33 400.00 136.67 400.00 140.00 400.00 C 140.01 396.65 140.00 393.30 140.00 389.95 C 143.12 389.79 146.56 390.73 149.47 389.47 C 150.73 386.56 149.79 383.11 149.95 380.00 C 153.30 380.00 156.65 380.01 160.00 380.00 C 160.00 383.33 160.00 386.67 160.00 390.02 C 180.00 389.98 200.00 390.01 220.00 390.00 C 219.99 393.33 219.99 396.66 220.00 400.00 C 226.67 400.00 233.33 400.00 240.00 400.00 C 240.00 390.00 240.00 380.00 240.00 370.00 C 243.33 370.00 246.66 370.00 249.99 369.99 C 250.00 363.33 250.00 356.67 249.99 350.01 C 246.66 350.00 243.33 350.00 240.00 350.00 C 240.00 353.33 240.00 356.66 240.00 360.00 C 236.67 360.00 233.33 360.00 230.00 360.00 C 230.00 366.67 230.00 373.34 229.99 380.01 C 223.33 380.00 216.67 380.00 210.01 380.01 C 210.00 376.67 209.99 373.34 209.99 370.00 C 206.66 370.00 203.33 370.00 200.00 370.00 C 200.00 373.33 200.00 376.66 200.00 380.00 C 196.67 379.99 193.34 379.99 190.01 380.00 C 190.00 373.33 189.99 366.67 190.00 360.00 C 193.33 360.00 196.66 360.00 200.00 360.00 C 200.00 350.00 200.00 340.00 200.00 330.00 C 196.67 330.00 193.34 330.00 190.01 329.99 C 190.00 326.66 189.99 323.33 190.00 320.00 C 196.67 320.00 203.33 320.00 210.00 320.00 C 210.00 323.33 210.00 326.67 210.00 330.01 C 220.00 330.00 230.01 330.00 240.01 330.00 C 240.09 333.26 239.68 336.57 240.19 339.80 C 243.35 340.18 246.64 340.17 249.81 339.81 C 250.50 336.74 249.38 333.43 250.42 330.45 C 253.44 329.35 256.84 330.22 260.01 330.03 C 260.01 333.35 260.01 336.67 260.00 340.00 C 263.33 340.01 266.66 340.01 269.99 340.00 C 270.00 346.67 270.00 353.33 270.00 360.00 C 273.33 360.00 276.66 360.00 280.00 360.00 C 280.00 353.33 280.00 346.67 280.00 340.01 C 283.33 340.00 286.67 340.00 290.01 339.99 C 290.00 346.66 290.01 353.33 290.00 360.00 C 293.33 360.00 296.66 360.00 300.00 360.00 C 299.99 363.34 299.99 366.69 299.99 370.03 C 303.16 370.19 306.53 369.39 309.56 370.44 C 310.67 376.79 309.65 383.50 310.00 389.99 C 306.66 389.99 303.33 389.99 300.00 389.99 C 299.99 393.32 299.99 396.66 300.00 400.00 C 306.66 400.00 313.33 400.00 320.00 400.00 C 320.00 393.33 320.00 386.67 320.00 380.00 C 323.33 380.00 326.67 380.00 330.01 380.00 C 330.01 376.66 330.01 373.33 329.99 370.01 C 323.39 369.83 316.75 370.31 310.18 369.82 C 309.69 366.58 310.07 363.26 310.02 360.00 C 320.01 360.00 330.00 360.00 340.00 360.00 C 340.01 370.00 339.98 380.00 340.00 390.00 C 343.33 390.01 346.67 390.00 350.01 389.99 C 350.01 386.66 350.00 383.33 350.00 380.00 C 356.67 379.99 363.34 380.01 370.00 380.00 C 370.01 376.67 370.00 373.33 370.00 370.01 C 373.33 370.01 376.67 370.01 380.00 370.00 C 379.99 373.33 379.99 376.67 380.00 380.00 C 386.67 380.01 393.33 380.00 400.00 380.00 C 400.00 373.33 400.00 366.67 400.00 360.00 C 396.66 360.00 393.33 360.00 390.00 360.00 C 389.99 353.33 390.00 346.66 389.99 339.99 C 393.32 340.00 396.66 340.01 400.00 340.00 C 400.00 333.33 400.00 326.67 400.00 320.00 C 393.33 320.00 386.67 320.00 380.00 320.00 C 379.99 323.33 379.99 326.67 380.00 330.00 C 376.67 330.01 373.34 330.01 370.01 330.00 C 370.00 326.66 370.00 323.33 370.00 320.00 C 366.66 320.00 363.33 320.00 360.00 320.00 C 360.00 316.66 360.00 313.33 360.00 310.00 C 353.33 310.00 346.66 310.00 340.00 309.99 C 339.99 306.66 339.98 303.33 340.00 300.00 C 343.33 300.01 346.67 300.01 350.01 300.00 C 349.98 286.67 349.99 273.33 350.01 260.00 C 353.34 260.00 356.67 260.01 360.00 260.00 C 360.00 256.66 359.99 253.33 360.00 250.00 C 366.66 250.00 373.33 250.00 380.00 250.00 C 380.00 246.67 380.00 243.33 379.99 240.00 C 383.33 240.00 386.66 240.00 390.00 240.00 C 389.99 236.67 390.00 233.34 390.01 230.01 C 393.34 230.00 396.67 230.00 400.00 230.00 C 400.00 220.00 400.00 210.00 400.00 200.00 C 396.66 200.00 393.33 200.00 390.00 200.00 C 389.99 196.66 389.99 193.33 390.00 189.99 C 386.66 189.99 383.33 189.99 379.99 190.00 C 379.99 193.33 379.99 196.66 380.00 200.00 C 376.67 200.00 373.33 200.00 370.00 200.00 C 370.01 206.67 370.00 213.34 370.01 220.00 C 363.34 219.98 356.67 220.00 350.01 220.00 C 349.99 213.33 349.99 206.67 350.00 200.00 C 346.66 200.00 343.33 200.00 340.00 200.00 C 340.00 196.67 340.00 193.33 340.00 190.00 C 343.34 190.01 346.67 189.99 350.01 189.99 C 349.99 179.99 349.99 170.00 350.00 160.00 C 353.33 160.00 356.66 160.00 360.00 160.00 C 360.00 156.66 360.00 153.33 360.00 150.00 C 363.33 150.00 366.67 150.00 370.01 149.99 C 370.00 156.66 370.01 163.33 369.99 169.99 C 366.66 170.00 363.33 170.00 360.00 170.00 C 360.00 176.67 360.00 183.33 360.00 190.00 C 363.33 190.00 366.66 190.00 369.99 190.00 C 369.99 186.66 370.01 183.33 370.01 180.00 C 373.34 180.01 376.66 180.01 380.00 180.00 C 380.02 173.33 379.99 166.67 380.00 160.00 C 383.33 160.00 386.66 160.00 390.00 160.00 C 390.00 166.67 390.00 173.33 389.99 180.00 C 393.32 180.00 396.66 180.01 400.00 180.00 C 400.00 160.00 400.00 140.00 400.00 120.00 C 396.66 120.00 393.33 120.00 390.00 120.00 C 389.99 116.66 389.99 113.33 390.00 109.99 C 373.33 110.00 356.67 110.00 340.01 109.99 C 339.99 113.33 339.99 116.66 340.00 120.00 C 336.66 120.00 333.33 119.99 330.00 120.00 C 330.01 123.33 330.00 126.66 329.99 129.99 C 326.66 130.00 323.33 130.00 320.00 130.00 C 320.00 133.33 320.00 136.67 320.00 140.00 C 326.67 140.01 333.33 139.99 340.00 140.00 C 339.99 143.34 339.99 146.67 340.00 150.01 C 330.00 150.00 320.00 149.99 310.01 150.01 C 310.15 156.61 309.70 163.25 310.18 169.82 C 313.42 170.30 316.73 169.91 320.00 169.99 C 320.00 176.66 320.00 183.33 320.00 190.00 C 316.67 190.00 313.34 190.00 310.01 190.00 C 309.96 183.92 310.05 177.85 310.01 171.78 C 309.89 171.46 309.63 170.81 309.51 170.49 C 306.53 169.31 303.13 170.25 299.99 170.02 C 299.99 173.35 299.99 176.67 300.00 180.00 C 296.66 180.01 293.33 180.01 290.00 180.00 C 289.99 183.33 289.99 186.66 289.99 189.99 C 293.32 189.99 296.66 189.99 300.00 190.00 C 300.01 196.67 300.01 203.33 300.00 210.00 C 296.66 210.01 293.32 210.01 289.99 210.01 C 290.04 216.08 289.95 222.15 289.98 228.22 C 290.11 228.55 290.36 229.19 290.48 229.52 C 290.81 229.64 291.45 229.89 291.78 230.01 C 297.85 230.05 303.92 229.96 309.99 229.99 C 310.00 233.32 310.00 236.66 310.00 240.00 C 306.66 240.00 303.33 240.00 300.00 240.00 C 299.99 246.67 300.01 253.33 300.00 260.00 C 296.66 260.00 293.33 260.01 290.00 260.01 C 290.01 256.67 290.01 253.34 289.99 250.01 C 286.66 250.00 283.33 250.00 280.00 250.00 C 280.00 246.66 280.00 243.33 280.00 240.00 C 274.66 240.00 269.31 240.00 263.97 239.99 C 262.02 242.57 259.89 245.00 257.51 247.19 C 258.27 250.05 260.00 253.37 258.15 256.16 C 256.25 258.85 252.59 257.98 249.99 257.02 C 250.00 261.35 249.98 265.67 249.99 269.99 C 246.66 270.00 243.33 270.00 240.00 270.00 C 240.00 273.33 240.00 276.66 240.00 280.00 C 243.33 280.00 246.67 280.00 250.00 280.00 C 250.00 283.33 250.00 286.66 249.99 289.99 C 246.66 290.00 243.33 290.00 240.00 290.00 C 240.00 296.67 240.00 303.33 240.00 310.00 C 236.67 310.00 233.34 310.00 230.01 310.01 C 230.00 313.34 230.00 316.67 230.00 320.00 C 226.67 319.99 223.33 320.00 220.00 320.00 C 220.00 316.66 220.01 313.33 220.00 310.00 C 216.66 309.99 213.32 309.99 209.99 309.99 C 209.99 306.66 210.01 303.33 210.01 300.00 C 213.34 300.01 216.67 300.01 220.00 300.00 C 220.01 293.33 220.00 286.67 220.00 280.00 C 213.33 280.00 206.67 280.00 200.00 280.00 C 200.00 286.66 200.00 293.33 200.00 299.99 C 186.67 300.01 173.34 299.98 160.00 300.00 C 160.00 296.67 160.00 293.33 160.00 290.00 C 166.67 290.00 173.33 290.00 180.00 290.01 C 180.01 286.67 180.00 283.34 180.00 280.00 C 170.00 280.00 160.00 280.00 150.00 280.00 C 150.00 286.67 150.00 293.34 149.99 300.01 C 146.66 300.01 143.33 300.01 140.00 300.00 C 139.99 293.33 140.01 286.67 140.00 280.00 C 136.67 280.00 133.33 280.00 130.00 280.00 C 130.00 273.33 130.00 266.66 130.01 259.99 C 136.67 259.99 143.33 260.02 149.98 260.00 C 149.74 256.85 150.69 253.46 149.51 250.49 C 149.19 250.36 148.55 250.11 148.22 249.99 C 135.49 250.00 122.75 250.00 110.01 250.01 C 109.99 253.34 109.99 256.67 109.99 260.00 C 106.66 259.99 103.33 259.99 100.01 260.00 C 100.01 256.67 100.01 253.33 100.01 250.00 C 96.67 249.99 93.33 250.00 89.99 250.01 C 89.99 253.34 90.00 256.67 90.01 260.01 C 86.67 260.00 83.34 259.99 80.00 260.00 C 80.00 256.65 79.99 253.31 80.00 249.97 C 76.73 249.94 73.42 250.31 70.19 249.81 C 69.67 246.57 70.07 243.26 70.02 239.99 C 73.27 239.92 76.58 240.32 79.80 239.80 C 80.40 236.64 79.61 233.36 80.19 230.20 C 83.35 229.80 86.63 229.86 89.81 230.19 C 90.36 233.41 89.91 236.72 89.98 239.97 C 93.24 239.92 96.56 240.32 99.79 239.80 C 100.19 236.64 100.18 233.35 99.80 230.19 C 96.74 229.51 93.44 230.62 90.47 229.56 C 89.33 226.56 90.20 223.15 90.04 220.00 C 93.36 220.01 96.68 220.01 100.00 220.00 C 100.01 216.67 100.01 213.34 100.01 210.01 C 93.34 210.00 86.67 210.00 80.00 210.00 C 80.00 206.67 80.00 203.33 80.00 200.00 C 73.33 200.00 66.67 200.00 60.00 200.00 C 59.99 193.33 59.99 186.67 60.00 180.00 C 63.33 179.99 66.66 179.99 69.99 180.00 C 69.99 173.33 69.99 166.67 70.00 160.00 C 63.33 160.00 56.67 160.00 50.00 160.00 C 50.01 163.33 50.00 166.66 49.99 169.99 C 46.66 170.00 43.33 170.00 40.00 170.00 C 40.00 160.00 40.00 150.00 40.00 140.00 C 43.33 140.00 46.66 140.01 50.00 140.00 C 49.99 143.33 49.99 146.66 49.99 149.99 C 53.33 150.00 56.67 150.01 60.01 150.01 C 60.01 146.67 60.01 143.34 60.00 140.00 C 63.33 140.00 66.66 140.01 69.99 140.00 C 70.00 136.67 70.01 133.34 70.01 130.01 C 66.68 130.01 63.34 130.01 60.00 130.00 C 59.99 123.33 60.02 116.66 60.00 110.00 C 56.67 109.99 53.34 109.99 50.00 109.99 M 300.00 120.00 C 299.99 126.67 299.99 133.33 300.00 140.00 C 303.33 140.01 306.67 140.01 310.01 140.00 C 309.99 133.33 309.99 126.67 310.00 120.00 C 306.66 119.99 303.33 120.00 300.00 120.00 M 69.99 140.00 C 69.99 143.33 69.99 146.66 70.01 149.99 C 73.34 150.00 76.67 150.00 80.00 150.00 C 80.00 146.67 80.00 143.33 80.00 140.00 C 76.66 139.99 73.33 139.99 69.99 140.00 M 289.99 139.99 C 289.99 143.32 289.99 146.66 289.99 149.99 C 293.33 150.00 296.67 150.01 300.01 150.00 C 300.01 146.67 300.01 143.33 300.00 140.00 C 296.66 139.99 293.33 140.00 289.99 139.99 M 80.00 150.00 C 80.00 160.00 80.00 170.00 80.00 180.00 C 86.67 180.01 93.33 180.01 100.00 180.00 C 100.01 176.67 100.01 173.34 100.01 170.00 C 96.67 170.00 93.34 170.01 90.01 170.00 C 90.00 166.67 90.00 163.33 90.00 160.00 C 93.33 160.00 96.67 160.00 100.00 160.00 C 100.01 156.66 100.00 153.33 100.00 150.00 C 93.34 149.99 86.67 150.00 80.00 150.00 M 174.30 186.30 C 167.41 193.64 164.98 204.90 168.70 214.32 C 170.61 220.18 175.20 224.40 179.58 228.46 C 179.76 231.78 177.96 235.02 177.78 238.40 C 181.79 237.25 185.22 234.77 189.09 233.30 C 195.44 234.67 201.90 235.13 208.39 235.41 C 208.57 236.81 208.68 238.33 209.64 239.46 C 215.11 246.65 224.03 250.85 232.97 251.30 C 237.28 251.77 241.47 250.33 245.74 250.35 C 249.02 251.56 251.97 253.53 255.35 254.53 C 254.89 251.72 254.14 248.97 253.34 246.24 C 257.39 242.91 261.33 239.08 263.04 233.97 C 266.26 225.67 263.36 215.96 257.06 209.94 C 251.79 204.55 244.33 202.10 237.02 201.11 C 235.17 191.87 229.17 183.55 220.72 179.29 C 205.98 171.11 185.76 173.69 174.30 186.30 M 100.00 180.00 C 99.99 183.33 99.99 186.66 100.00 189.99 C 103.15 189.74 106.54 190.68 109.52 189.52 C 110.68 186.53 109.74 183.14 109.99 179.99 C 106.66 179.99 103.33 179.99 100.00 180.00 M 229.46 180.17 C 231.88 183.52 235.06 186.29 237.02 189.99 C 237.76 190.00 239.25 190.01 239.99 190.02 C 239.99 186.67 239.99 183.33 239.99 179.99 C 236.48 179.99 232.96 179.93 229.46 180.17 M 90.01 189.99 C 90.00 193.33 90.00 196.66 90.00 200.00 C 93.34 200.00 96.67 200.00 100.00 200.00 C 100.00 196.66 100.00 193.32 100.00 189.99 C 96.67 189.99 93.34 189.99 90.01 189.99 M 110.17 190.17 C 109.71 196.75 110.15 203.39 110.01 209.99 C 116.61 209.84 123.25 210.32 129.81 209.82 C 130.32 206.58 129.92 203.26 129.99 200.00 C 126.66 200.00 123.33 200.00 120.00 200.00 C 120.00 196.67 120.00 193.34 120.00 190.01 C 116.73 190.10 113.42 189.69 110.17 190.17 M 270.01 190.01 C 270.15 196.61 269.71 203.25 270.18 209.82 C 273.42 210.30 276.73 209.90 280.00 209.99 C 280.00 203.32 280.00 196.66 280.00 190.00 C 276.67 190.00 273.34 190.00 270.01 190.01 M 150.00 200.00 C 150.00 203.34 150.00 206.68 149.99 210.02 C 143.51 210.36 136.79 209.29 130.46 210.46 C 129.31 213.79 130.28 217.51 130.01 221.00 C 130.25 223.80 129.31 226.87 130.50 229.50 C 133.47 230.69 136.86 229.75 140.00 229.98 C 139.99 233.31 139.99 236.65 140.00 240.00 C 143.33 240.00 146.67 240.00 150.01 240.00 C 150.10 243.27 149.69 246.58 150.17 249.83 C 156.69 250.14 163.31 250.14 169.82 249.83 C 170.30 246.58 169.91 243.27 169.98 240.00 C 171.39 240.00 172.81 240.00 174.23 240.00 C 173.61 236.62 174.53 233.32 175.67 230.17 C 172.23 227.29 169.20 223.91 166.96 220.01 C 164.64 219.99 162.32 219.98 160.01 219.98 C 160.02 216.66 160.01 213.33 159.99 210.01 C 160.83 210.01 162.52 210.01 163.36 210.01 C 162.96 206.68 162.96 203.32 163.38 199.99 C 158.92 200.00 154.46 200.00 150.00 200.00 M 262.62 210.00 C 264.70 213.21 266.31 216.70 267.48 220.34 C 268.07 220.20 269.24 219.91 269.83 219.77 C 270.04 216.73 270.58 213.38 269.52 210.48 C 267.41 209.39 264.89 210.20 262.62 210.00 M 270.48 220.48 C 269.32 223.46 270.25 226.85 270.01 229.99 C 273.34 230.00 276.67 230.00 280.00 230.01 C 279.99 226.68 280.00 223.35 280.00 220.02 C 276.86 220.26 273.46 219.32 270.48 220.48 M 120.00 230.02 C 120.00 233.34 120.00 236.67 120.00 240.00 C 123.33 240.00 126.66 240.00 129.98 240.00 C 129.91 236.73 130.31 233.42 129.82 230.18 C 126.58 229.69 123.27 230.09 120.00 230.02 M 280.00 230.01 C 280.00 233.34 280.00 236.67 280.00 240.00 C 283.33 240.00 286.66 240.00 289.99 240.00 C 289.90 236.73 290.30 233.42 289.83 230.17 C 286.58 229.69 283.27 230.10 280.00 230.01 M 189.36 237.34 C 187.74 238.05 186.23 238.98 184.71 239.87 C 189.81 240.10 194.91 239.98 200.01 240.00 C 200.01 243.33 200.01 246.67 200.00 250.00 C 203.33 250.00 206.66 250.00 209.99 250.00 C 210.00 256.67 210.01 263.33 209.99 269.99 C 219.99 270.00 229.99 270.00 240.00 270.00 C 239.99 266.66 240.00 263.33 240.00 260.00 C 233.33 259.99 226.67 260.00 220.01 260.01 C 220.00 257.42 219.99 254.83 219.99 252.24 C 215.16 250.00 210.55 247.01 207.26 242.77 C 206.43 241.92 205.90 240.70 204.77 240.21 C 199.55 239.74 194.59 237.79 189.36 237.34 M 30.00 240.00 C 30.00 246.67 30.01 253.33 29.99 260.00 C 33.32 260.01 36.66 260.01 40.00 260.00 C 40.00 253.33 40.00 246.67 40.00 240.00 C 36.67 240.00 33.33 240.00 30.00 240.00 M 170.49 250.49 C 169.31 253.47 170.26 256.86 170.01 260.01 C 173.34 260.00 176.67 260.00 180.00 260.00 C 180.00 256.67 180.01 253.35 180.01 250.02 C 176.86 250.26 173.47 249.31 170.49 250.49 M 390.01 250.01 C 389.99 253.34 389.99 256.66 389.99 260.00 C 393.32 260.00 396.66 260.01 400.00 260.00 C 400.00 256.66 399.99 253.33 400.00 250.00 C 396.67 250.00 393.34 250.00 390.01 250.01 M 40.00 260.00 C 40.00 266.66 40.00 273.33 40.00 280.00 C 43.33 280.00 46.67 280.00 50.00 280.00 C 50.00 276.67 50.00 273.33 50.01 270.00 C 53.34 269.99 56.67 269.99 60.01 270.00 C 60.01 266.66 60.01 263.33 60.00 260.00 C 53.33 260.00 46.66 259.99 40.00 260.00 M 149.98 260.00 C 149.99 263.33 149.99 266.66 150.01 269.99 C 153.34 270.00 156.67 270.00 160.00 270.00 C 159.99 266.67 160.00 263.33 160.00 260.00 C 156.66 259.99 153.32 259.99 149.98 260.00 M 189.99 260.00 C 190.01 266.67 190.00 273.33 190.00 280.00 C 193.33 280.00 196.67 280.00 200.00 280.00 C 200.00 273.33 200.00 266.67 200.00 260.00 C 196.66 259.99 193.32 259.99 189.99 260.00 M 360.00 260.00 C 360.00 266.66 360.00 273.33 360.00 280.00 C 366.67 280.00 373.33 280.00 380.00 280.00 C 380.01 276.66 380.00 273.32 380.00 269.99 C 376.67 269.99 373.33 269.99 370.00 269.99 C 370.00 266.66 370.01 263.33 370.01 260.00 C 366.67 259.99 363.34 259.99 360.00 260.00 M 380.00 260.00 C 379.99 263.32 379.99 266.65 380.00 269.99 C 383.14 269.74 386.53 270.69 389.51 269.51 C 390.68 266.53 389.74 263.14 389.99 260.00 C 386.66 259.99 383.33 259.99 380.00 260.00 M 390.18 270.18 C 389.69 273.42 390.09 276.73 390.01 280.00 C 386.67 279.99 383.33 280.00 380.00 280.00 C 379.99 283.33 379.99 286.67 380.00 290.00 C 383.34 290.01 386.67 290.01 390.01 290.01 C 390.01 293.34 389.99 296.67 389.99 300.01 C 386.66 300.01 383.32 300.01 380.00 300.00 C 379.99 303.33 379.99 306.66 379.99 309.99 C 386.66 310.00 393.33 310.00 400.00 310.00 C 400.00 296.67 400.00 283.34 400.00 270.01 C 396.73 270.09 393.41 269.69 390.18 270.18 M 50.00 280.00 C 50.01 283.33 50.00 286.66 49.99 289.99 C 43.33 290.01 36.67 289.99 30.01 290.01 C 29.99 293.34 29.99 296.67 29.99 300.00 C 36.66 300.02 43.34 299.99 50.01 300.00 C 50.01 303.33 50.01 306.66 49.99 309.99 C 43.33 310.01 36.67 309.99 30.01 310.01 C 30.00 313.34 30.00 316.67 30.00 320.00 C 40.00 320.00 50.00 320.00 60.00 320.00 C 60.01 316.66 60.01 313.33 60.00 310.01 C 63.34 309.99 66.67 309.99 70.01 309.99 C 70.01 306.66 70.01 303.33 70.00 300.00 C 66.67 300.01 63.34 300.01 60.00 300.00 C 59.99 293.33 60.01 286.67 60.00 280.00 C 56.67 280.00 53.33 280.00 50.00 280.00 M 360.00 290.00 C 360.00 296.67 360.00 303.33 360.00 310.00 C 363.33 310.00 366.66 310.00 369.99 309.99 C 370.01 303.33 370.01 296.67 369.99 290.01 C 366.66 290.00 363.33 290.00 360.00 290.00 M 30.01 330.00 C 29.99 353.34 30.00 376.67 30.00 400.00 C 53.33 400.00 76.67 400.00 100.00 400.00 C 100.00 376.67 100.00 353.34 100.01 330.01 C 76.68 330.00 53.34 330.00 30.01 330.00 M 209.99 340.00 C 210.00 346.67 210.01 353.33 210.00 360.00 C 213.33 360.00 216.67 360.00 220.00 360.00 C 220.01 353.33 220.00 346.67 220.00 340.00 C 216.66 339.99 213.33 339.99 209.99 340.00 M 120.00 360.00 C 120.00 363.33 120.00 366.66 120.00 370.00 C 116.67 370.00 113.34 370.00 110.01 370.01 C 109.99 373.34 109.99 376.67 109.99 380.00 C 116.66 380.01 123.34 380.01 130.01 380.00 C 129.99 373.33 130.00 366.67 130.00 360.00 C 126.67 360.00 123.33 360.00 120.00 360.00 M 259.99 369.99 C 259.99 373.33 259.99 376.66 260.00 380.00 C 270.00 380.01 280.01 380.01 290.01 380.00 C 290.01 376.67 290.00 373.34 289.99 370.01 C 279.99 369.99 269.99 370.01 259.99 369.99 M 249.99 380.00 C 250.00 386.67 250.01 393.33 250.00 400.00 C 253.33 400.00 256.67 400.00 260.00 400.00 C 260.00 393.33 260.01 386.66 260.00 380.00 C 256.66 379.99 253.33 379.99 249.99 380.00 M 290.01 380.00 C 290.26 383.14 289.32 386.53 290.48 389.52 C 293.46 390.68 296.85 389.74 300.00 389.99 C 300.01 386.65 300.00 383.32 300.00 380.00 C 296.67 379.99 293.34 379.99 290.01 380.00 M 150.19 390.19 C 149.68 393.42 150.05 396.73 150.03 400.00 C 153.35 400.00 156.67 400.00 160.00 400.00 C 160.00 396.67 160.00 393.34 160.00 390.02 C 156.74 390.06 153.42 389.68 150.19 390.19 M 270.01 390.01 C 270.00 393.34 270.00 396.67 270.00 400.00 C 276.66 400.00 283.32 400.00 289.99 400.00 C 289.90 396.73 290.30 393.41 289.83 390.17 C 283.25 389.71 276.61 390.15 270.01 390.01 M 330.00 389.99 C 330.00 393.32 330.00 396.66 330.00 400.00 C 333.33 400.00 336.67 400.00 340.00 400.00 C 340.00 396.66 340.00 393.33 340.00 390.00 C 336.66 389.98 333.33 389.99 330.00 389.99 M 360.00 390.00 C 360.00 393.33 360.00 396.66 360.00 400.00 C 363.33 400.00 366.66 400.00 370.00 400.00 C 370.00 396.67 370.00 393.34 369.99 390.01 C 366.66 390.00 363.33 390.00 360.00 390.00 M 390.01 390.01 C 390.00 393.34 390.00 396.67 390.00 400.00 C 393.33 400.00 396.66 400.00 400.00 400.00 C 400.00 396.66 400.00 393.33 400.00 390.00 C 396.67 390.00 393.34 390.00 390.01 390.01 Z" />
<path fill="#ffffff" opacity="1.00" d=" M 40.00 40.00 C 56.67 40.00 73.33 40.00 90.00 40.00 C 90.00 56.66 90.02 73.33 89.99 89.99 C 73.33 90.01 56.66 90.00 40.00 90.00 C 40.00 73.33 40.00 56.67 40.00 40.00 M 49.99 50.01 C 50.01 60.00 50.00 70.00 50.00 80.00 C 60.00 80.00 70.00 80.00 80.00 80.00 C 80.00 70.00 80.00 60.00 80.00 50.00 C 69.99 50.00 59.99 50.00 49.99 50.01 Z" />
<path fill="#ffffff" opacity="1.00" d=" M 340.00 40.00 C 356.67 40.00 373.33 40.00 390.00 40.00 C 389.99 56.67 390.01 73.34 389.99 90.01 C 373.33 89.99 356.66 90.01 340.00 89.99 C 339.99 73.33 340.00 56.67 340.00 40.00 M 350.01 50.00 C 350.00 60.00 350.00 70.00 350.00 80.00 C 360.00 80.00 370.00 80.00 380.00 80.00 C 380.01 70.00 380.00 60.00 380.01 50.01 C 370.01 50.00 360.01 50.00 350.01 50.00 Z" />
<path fill="#ffffff" opacity="1.00" d=" M 130.49 50.54 C 133.45 49.30 136.86 50.17 140.00 50.01 C 140.00 63.34 139.99 76.67 140.00 90.00 C 136.66 90.01 133.32 90.01 129.99 90.01 C 129.99 93.34 130.00 96.67 130.01 100.01 C 126.67 100.00 123.34 99.99 120.00 100.00 C 120.00 89.99 120.00 79.98 120.00 69.97 C 123.24 70.01 126.53 70.33 129.74 69.76 C 130.72 63.41 129.14 56.82 130.49 50.54 Z" />
<path fill="#ffffff" opacity="1.00" d=" M 190.01 60.00 C 193.34 59.99 196.67 59.99 200.00 60.00 C 200.00 63.33 200.00 66.66 200.00 70.00 C 203.33 70.00 206.66 70.00 209.99 70.00 C 209.99 66.66 210.00 63.33 210.01 60.00 C 216.67 60.01 223.33 59.99 229.99 59.99 C 230.00 63.33 230.01 66.66 230.01 70.00 C 233.34 70.00 236.67 70.00 240.00 70.00 C 240.00 76.67 240.00 83.33 240.00 90.00 C 236.66 90.00 233.33 90.00 229.99 90.00 C 229.99 86.67 229.99 83.34 230.00 80.00 C 220.00 80.00 210.00 80.00 200.00 80.00 C 200.00 83.33 200.00 86.67 200.00 90.00 C 196.67 90.00 193.34 90.00 190.01 90.01 C 190.00 93.34 189.99 96.67 189.99 100.00 C 193.32 100.00 196.66 100.01 200.00 100.00 C 200.00 96.66 200.00 93.33 200.00 90.00 C 203.33 90.00 206.66 90.00 209.99 90.00 C 210.00 96.67 210.00 103.33 209.99 110.00 C 206.66 110.00 203.33 110.00 200.00 110.00 C 200.00 113.33 200.00 116.67 200.00 120.00 C 210.00 120.00 220.00 120.00 230.00 120.00 C 230.00 126.67 230.00 133.34 229.99 140.01 C 226.66 140.01 223.33 140.00 220.01 140.00 C 220.01 136.67 220.01 133.34 220.01 130.01 C 210.01 129.99 200.01 130.01 190.01 129.99 C 189.99 123.33 190.00 116.66 190.00 109.99 C 186.66 109.99 183.33 109.99 180.01 110.00 C 179.98 120.00 180.00 129.99 179.99 139.99 C 183.33 140.00 186.66 140.01 189.99 140.00 C 190.00 146.67 190.00 153.33 190.00 160.00 C 180.00 160.00 170.00 160.00 160.00 160.00 C 160.00 156.67 160.00 153.33 160.00 150.00 C 163.33 150.00 166.66 150.00 169.99 149.99 C 169.99 146.66 170.01 143.33 170.01 140.01 C 166.67 140.00 163.34 139.99 160.00 140.00 C 160.00 136.66 160.00 133.33 160.00 130.00 C 163.33 130.00 166.66 130.00 169.99 129.99 C 170.00 126.66 170.00 123.33 170.00 120.00 C 166.67 120.00 163.33 120.00 160.00 120.00 C 160.00 110.00 160.00 100.00 160.00 90.00 C 163.33 90.00 166.66 90.00 169.99 90.00 C 169.99 93.34 170.00 96.67 170.01 100.01 C 173.34 100.00 176.67 100.00 179.99 100.00 C 180.02 93.34 179.98 86.67 180.00 80.00 C 183.33 80.00 186.66 80.00 190.00 80.00 C 190.00 73.33 189.99 66.67 190.01 60.00 Z" />
<path fill="#ffffff" opacity="1.00" d=" M 160.00 70.00 C 166.67 70.00 173.34 70.00 180.00 70.01 C 180.00 73.34 180.00 76.67 180.00 80.00 C 173.33 80.00 166.67 80.00 160.00 80.00 C 160.00 76.67 160.00 73.33 160.00 70.00 Z" />
<path fill="#ffffff" opacity="1.00" d=" M 150.00 80.00 C 153.33 80.00 156.67 80.00 160.00 80.00 C 160.00 83.33 160.00 86.67 160.00 90.00 C 156.66 90.00 153.33 90.00 149.99 90.00 C 149.99 86.67 149.99 83.33 150.00 80.00 Z" />
<path fill="#ffffff" opacity="1.00" d=" M 140.00 90.00 C 143.33 90.00 146.66 90.01 149.99 90.01 C 150.00 96.67 150.00 103.33 150.00 109.99 C 146.67 109.99 143.34 109.99 140.01 110.00 C 140.00 113.33 140.00 116.67 139.99 120.00 C 136.66 120.00 133.33 120.00 130.00 120.00 C 130.00 113.33 130.00 106.67 130.01 100.01 C 133.34 100.01 136.67 100.00 140.00 100.00 C 140.00 96.66 140.01 93.33 140.00 90.00 Z" />
<path fill="#ffffff" opacity="1.00" d=" M 219.99 90.00 C 223.32 90.00 226.66 90.01 229.99 90.01 C 229.99 96.67 230.00 103.33 230.01 109.99 C 226.67 109.99 223.33 109.99 219.99 110.00 C 219.99 103.33 220.00 96.67 219.99 90.00 Z" />
<path fill="#ffffff" opacity="1.00" d=" M 90.00 120.00 C 93.33 120.00 96.66 120.00 100.00 120.00 C 100.00 123.34 100.01 126.67 100.00 130.01 C 96.67 130.01 93.34 130.01 90.01 130.01 C 90.00 126.67 90.00 123.34 90.00 120.00 Z" />
<path fill="#ffffff" opacity="1.00" d=" M 110.00 120.00 C 116.67 120.00 123.33 120.00 130.00 120.00 C 130.00 123.34 130.00 126.67 130.01 130.01 C 133.34 130.01 136.67 130.01 140.01 130.00 C 140.01 133.33 140.01 136.66 140.00 140.00 C 133.33 140.01 126.67 140.00 120.00 140.00 C 120.00 136.66 120.00 133.33 120.00 130.00 C 116.66 130.00 113.33 130.00 109.99 130.00 C 109.99 126.67 109.99 123.33 110.00 120.00 Z" />
<path fill="#ffffff" opacity="1.00" d=" M 150.00 120.00 C 153.33 120.00 156.66 120.00 160.00 120.00 C 160.00 123.33 160.00 126.67 160.00 130.00 C 156.67 130.00 153.34 130.00 150.01 129.99 C 150.00 126.66 149.99 123.33 150.00 120.00 Z" />
<path fill="#ffffff" opacity="1.00" d=" M 240.00 120.00 C 243.33 120.00 246.67 120.00 250.00 120.00 C 250.01 123.33 250.00 126.66 249.99 129.99 C 246.66 130.00 243.33 130.00 240.00 130.00 C 240.00 126.67 240.00 123.33 240.00 120.00 Z" />
<path fill="#ffffff" opacity="1.00" d=" M 350.00 120.00 C 363.33 120.00 376.66 120.00 390.00 120.00 C 390.00 123.33 390.00 126.67 389.99 130.00 C 386.66 130.01 383.32 130.01 379.99 130.00 C 379.99 133.33 379.99 136.66 380.00 139.99 C 383.33 139.99 386.67 139.99 390.01 140.01 C 390.00 143.33 390.00 146.66 390.01 149.99 C 383.34 150.00 376.67 150.00 370.01 149.99 C 370.01 143.33 369.99 136.67 369.99 130.00 C 366.66 130.00 363.33 130.00 360.00 130.00 C 360.00 136.67 360.00 143.33 360.00 150.00 C 356.66 150.00 353.33 150.00 349.99 150.00 C 350.00 153.33 350.00 156.66 350.00 160.00 C 346.66 159.99 343.33 160.00 340.01 160.00 C 339.99 156.67 339.99 153.34 340.00 150.01 C 343.33 149.99 346.66 149.99 349.99 149.99 C 350.00 139.99 349.99 130.00 350.00 120.00 Z" />
<path fill="#ffffff" opacity="1.00" d=" M 140.00 140.00 C 146.67 139.99 153.33 140.01 160.00 140.00 C 160.00 143.33 160.00 146.66 160.00 150.00 C 153.33 150.00 146.66 150.00 140.00 150.00 C 139.99 146.66 139.99 143.33 140.00 140.00 Z" />
<path fill="#ffffff" opacity="1.00" d=" M 200.00 140.00 C 206.67 139.98 213.34 140.00 220.01 140.00 C 220.00 146.67 220.01 153.33 220.00 160.00 C 216.66 160.00 213.33 160.00 210.00 160.00 C 210.00 156.67 210.00 153.34 209.99 150.01 C 206.66 150.00 203.33 150.00 200.00 150.00 C 200.00 146.67 200.00 143.33 200.00 140.00 Z" />
<path fill="#ffffff" opacity="1.00" d=" M 120.00 150.00 C 126.67 150.00 133.33 150.00 140.00 150.00 C 139.99 153.33 140.00 156.66 140.01 160.00 C 146.67 160.00 153.33 160.00 160.00 160.00 C 160.00 163.33 160.00 166.66 160.00 170.00 C 156.67 170.00 153.34 170.00 150.01 170.00 C 150.01 173.34 150.00 176.67 149.99 180.01 C 146.66 180.01 143.33 180.00 140.01 180.00 C 140.01 176.67 140.01 173.34 140.01 170.00 C 136.67 170.01 133.34 170.01 130.01 170.00 C 130.00 166.67 130.00 163.33 130.00 160.00 C 126.67 160.00 123.33 160.00 120.00 160.00 C 120.00 156.67 120.00 153.33 120.00 150.00 Z" />
<path fill="#ffffff" opacity="1.00" d=" M 270.00 160.00 C 273.33 160.00 276.66 160.00 280.00 160.00 C 280.00 163.33 280.00 166.67 280.00 170.00 C 276.67 170.00 273.34 170.00 270.01 169.99 C 270.00 166.66 269.99 163.33 270.00 160.00 Z" />
<path fill="#ffffff" opacity="1.00" d=" M 329.99 179.99 C 333.32 179.99 336.66 179.99 339.99 180.00 C 340.00 183.33 340.01 186.67 340.00 190.00 C 336.67 190.00 333.34 189.99 330.01 189.99 C 330.01 186.66 330.00 183.33 329.99 179.99 Z" />
<path fill="#ffffff" opacity="1.00" d=" M 320.00 190.00 C 323.33 190.00 326.67 190.00 330.01 190.00 C 330.00 193.33 330.00 196.66 330.00 200.00 C 326.66 200.00 323.33 200.00 320.00 200.00 C 320.00 196.67 320.00 193.33 320.00 190.00 Z" />
<path fill="#ffffff" opacity="1.00" d=" M 40.00 200.00 C 43.33 200.00 46.67 200.00 50.00 200.00 C 50.01 203.33 50.00 206.66 49.99 209.99 C 46.66 210.00 43.33 210.00 40.00 210.00 C 40.00 206.67 40.00 203.33 40.00 200.00 Z" />
<path fill="#ffffff" opacity="1.00" d=" M 380.00 200.00 C 383.33 200.00 386.66 200.00 390.00 200.00 C 390.00 206.67 390.00 213.34 389.99 220.01 C 386.66 220.01 383.33 220.00 380.00 220.00 C 380.01 213.33 379.98 206.67 380.00 200.00 Z" />
<path fill="#ffffff" opacity="1.00" d=" M 211.25 212.27 C 222.52 198.87 245.76 198.55 257.31 211.77 C 262.32 217.32 264.24 225.58 261.61 232.66 C 259.90 237.91 255.78 241.82 251.59 245.19 C 252.09 247.48 252.58 249.77 253.04 252.07 C 249.35 250.33 245.51 247.53 241.23 249.03 C 228.96 251.79 214.40 246.98 208.39 235.41 C 204.54 228.02 205.76 218.50 211.25 212.27 M 223.51 214.47 C 221.13 215.44 220.39 218.96 222.33 220.67 C 224.37 223.14 229.15 221.27 228.75 218.00 C 228.95 215.31 225.89 213.47 223.51 214.47 M 242.48 214.43 C 240.17 215.49 239.36 218.91 241.33 220.67 C 243.40 223.12 248.08 221.29 247.76 218.00 C 247.96 215.26 244.90 213.52 242.48 214.43 Z" />
<path fill="#ffffff" opacity="1.00" d=" M 320.00 210.00 C 323.33 210.00 326.66 210.00 329.99 210.00 C 329.99 213.33 330.00 216.67 330.01 220.00 C 333.34 219.99 336.67 219.99 340.00 220.00 C 340.00 223.33 340.00 226.66 340.00 230.00 C 336.67 229.99 333.34 229.99 330.01 229.99 C 330.00 233.33 330.00 236.66 330.00 240.00 C 333.33 240.00 336.66 240.00 339.99 240.00 C 340.01 250.00 340.00 260.00 340.01 269.99 C 336.67 269.99 333.34 269.99 330.01 269.99 C 330.00 266.66 330.00 263.33 329.99 260.00 C 323.33 259.99 316.67 260.00 310.01 260.01 C 309.99 253.34 309.99 246.67 310.00 240.00 C 313.33 240.00 316.66 240.00 320.00 240.00 C 320.00 230.00 320.00 220.00 320.00 210.00 Z" />
<path fill="#ffffff" opacity="1.00" d=" M 40.00 220.00 C 43.34 219.99 46.67 220.00 50.01 220.01 C 50.01 223.33 49.99 226.66 49.99 229.99 C 46.66 230.00 43.33 230.00 40.00 230.00 C 40.00 226.66 40.00 223.33 40.00 220.00 Z" />
<path fill="#ffffff" opacity="1.00" d=" M 60.01 220.00 C 63.33 219.99 66.66 219.99 69.99 219.99 C 70.01 226.66 69.98 233.32 70.02 239.99 C 66.68 240.00 63.34 240.00 60.00 240.00 C 60.00 233.33 59.99 226.66 60.01 220.00 Z" />
<path fill="#ffffff" opacity="1.00" d=" M 370.01 220.00 C 373.34 220.01 376.67 220.00 380.00 220.00 C 379.98 226.67 380.02 233.33 379.99 240.00 C 376.66 240.00 373.33 240.00 370.00 240.00 C 370.00 233.33 370.00 226.67 370.01 220.00 Z" />
<path fill="#ffffff" opacity="1.00" d=" M 150.01 230.01 C 153.34 230.00 156.67 230.00 160.00 230.00 C 160.00 233.33 160.00 236.66 160.00 240.00 C 156.67 240.00 153.34 240.00 150.01 240.00 C 149.99 236.67 150.00 233.34 150.01 230.01 Z" />
<path fill="#ffffff" opacity="1.00" d=" M 340.00 230.00 C 346.67 230.00 353.33 230.00 360.00 230.00 C 360.00 236.67 360.00 243.33 360.00 250.00 C 356.67 250.00 353.34 250.00 350.01 249.99 C 350.00 246.66 349.99 243.33 350.00 240.00 C 346.66 240.00 343.33 240.00 339.99 240.00 C 340.00 236.66 340.00 233.33 340.00 230.00 Z" />
<path fill="#ffffff" opacity="1.00" d=" M 90.01 260.01 C 93.34 260.00 96.67 260.00 100.01 260.00 C 100.01 263.33 100.01 266.66 100.01 270.00 C 96.67 269.99 93.33 269.99 89.99 269.99 C 89.99 266.66 90.00 263.33 90.01 260.01 Z" />
<path fill="#ffffff" opacity="1.00" d=" M 109.99 260.00 C 113.33 259.99 116.66 259.99 120.00 260.00 C 120.00 263.33 120.00 266.66 120.00 270.00 C 116.67 270.00 113.34 270.00 110.01 270.00 C 110.01 266.66 109.99 263.33 109.99 260.00 Z" />
<path fill="#ffffff" opacity="1.00" d=" M 260.01 260.01 C 270.01 260.00 280.00 259.98 290.00 260.01 C 289.99 263.33 289.99 266.66 289.99 269.99 C 299.99 270.00 309.99 270.00 320.00 270.00 C 320.00 273.33 320.00 276.66 320.00 280.00 C 323.33 280.00 326.67 280.00 330.00 280.00 C 330.00 283.33 330.00 286.67 330.01 290.01 C 326.67 290.00 323.33 290.00 320.00 290.00 C 320.00 293.33 320.00 296.66 320.00 300.00 C 316.66 299.99 313.33 299.99 309.99 300.00 C 310.00 293.33 309.99 286.67 310.00 280.00 C 306.66 280.00 303.33 280.00 300.01 280.00 C 299.98 286.67 300.00 293.33 300.01 300.00 C 296.67 299.99 293.34 299.99 290.01 299.99 C 290.00 296.66 289.99 293.33 289.99 290.00 C 286.66 290.00 283.33 290.00 280.00 290.00 C 280.00 283.33 280.00 276.67 280.00 270.00 C 276.67 270.00 273.34 270.00 270.01 270.01 C 269.99 280.01 270.01 290.01 269.99 300.01 C 266.66 300.01 263.33 300.00 260.00 300.00 C 260.01 286.67 259.99 273.34 260.01 260.01 Z" />
<path fill="#ffffff" opacity="1.00" d=" M 90.00 280.00 C 93.33 280.00 96.67 280.00 100.00 280.00 C 100.01 283.34 100.00 286.67 99.99 290.01 C 96.66 290.01 93.34 290.01 90.01 290.01 C 90.00 286.67 90.00 283.34 90.00 280.00 Z" />
<path fill="#ffffff" opacity="1.00" d=" M 110.00 280.00 C 116.67 280.00 123.33 280.00 130.00 280.00 C 130.01 286.67 130.01 293.34 129.99 300.01 C 123.32 300.00 116.66 300.00 109.99 300.00 C 110.00 293.33 109.99 286.67 110.00 280.00 Z" />
<path fill="#ffffff" opacity="1.00" d=" M 330.01 290.01 C 333.34 290.01 336.67 290.00 340.01 290.00 C 340.01 293.33 340.01 296.66 340.00 300.00 C 336.67 300.00 333.34 300.01 330.01 300.01 C 330.01 296.67 330.01 293.34 330.01 290.01 Z" />
<path fill="#ffffff" opacity="1.00" d=" M 250.01 299.99 C 253.34 299.99 256.67 299.99 260.00 300.00 C 259.99 303.33 259.99 306.66 259.99 309.99 C 266.66 310.00 273.33 310.00 280.00 310.00 C 279.99 306.67 280.00 303.34 280.00 300.01 C 283.34 300.00 286.67 299.99 290.01 299.99 C 290.00 303.32 289.99 306.66 289.99 309.99 C 293.32 309.99 296.66 309.99 300.01 310.00 C 300.01 306.66 300.01 303.33 300.01 300.00 C 303.33 300.00 306.66 300.01 309.99 300.00 C 310.00 306.66 310.00 313.33 310.00 320.00 C 306.66 319.99 303.33 320.00 300.00 320.00 C 299.99 323.33 299.99 326.66 300.00 330.00 C 303.33 330.01 306.66 330.01 310.00 330.01 C 310.00 336.67 310.00 343.33 310.00 349.99 C 306.66 349.99 303.33 349.99 300.00 350.00 C 299.99 346.67 299.99 343.33 300.00 340.00 C 296.66 339.99 293.33 339.99 290.01 339.99 C 290.00 333.33 290.00 326.66 290.00 320.00 C 276.67 320.07 263.33 319.85 250.00 320.12 C 250.00 313.41 250.00 306.70 250.01 299.99 Z" />
<path fill="#ffffff" opacity="1.00" d=" M 320.00 300.00 C 323.33 299.99 326.67 300.00 330.01 300.01 C 330.00 303.33 329.99 306.66 329.99 310.00 C 326.66 310.00 323.33 310.00 320.00 310.00 C 320.00 306.66 320.00 303.33 320.00 300.00 Z" />
<path fill="#ffffff" opacity="1.00" d=" M 140.01 310.00 C 143.33 309.99 146.66 309.99 149.99 309.99 C 150.01 316.66 150.00 323.33 150.00 330.00 C 153.33 330.00 156.66 330.00 160.00 330.00 C 160.00 323.33 160.00 316.67 160.00 310.00 C 170.00 310.00 180.00 310.00 189.99 309.99 C 190.00 313.32 190.00 316.66 190.00 320.00 C 183.33 320.00 176.67 320.00 170.00 320.00 C 170.00 323.34 170.00 326.67 170.01 330.01 C 173.34 330.01 176.67 330.00 180.01 330.00 C 180.00 336.67 180.00 343.33 180.01 350.00 C 176.67 349.99 173.34 349.99 170.01 349.99 C 170.00 353.32 170.00 356.66 170.00 360.00 C 173.33 360.00 176.67 360.00 180.00 360.00 C 180.00 363.33 180.00 366.66 180.00 370.00 C 176.67 370.01 173.34 370.01 170.00 370.01 C 169.99 373.34 169.99 376.67 169.99 380.01 C 166.66 380.00 163.33 380.00 160.00 380.00 C 160.00 366.66 160.00 353.33 160.00 340.00 C 156.66 339.99 153.33 339.99 150.00 339.99 C 149.99 336.66 149.99 333.33 149.99 330.01 C 146.66 330.01 143.33 330.00 139.99 330.01 C 139.99 333.33 139.99 336.66 140.00 340.00 C 136.67 339.99 133.34 339.99 130.01 339.99 C 130.00 333.33 130.00 326.66 130.00 320.00 C 133.33 320.00 136.66 320.00 139.99 320.00 C 140.00 316.66 140.00 313.33 140.01 310.00 Z" />
<path fill="#ffffff" opacity="1.00" d=" M 240.00 320.00 C 243.33 319.99 246.67 319.93 250.00 320.12 C 249.91 323.33 250.26 326.57 249.79 329.76 C 246.57 330.35 243.26 329.93 240.01 330.00 C 240.00 326.66 240.00 323.33 240.00 320.00 Z" />
<path fill="#ffffff" opacity="1.00" d=" M 320.00 320.00 C 330.00 320.00 340.00 320.00 350.00 320.00 C 350.00 330.00 349.99 339.99 350.01 349.99 C 340.01 350.00 330.00 350.00 320.00 350.00 C 320.00 340.00 320.00 330.00 320.00 320.00 M 329.99 330.01 C 329.99 333.34 329.99 336.67 329.99 340.01 C 333.33 340.00 336.66 340.00 340.00 340.00 C 340.00 336.66 340.01 333.33 340.01 329.99 C 336.67 329.99 333.33 330.00 329.99 330.01 Z" />
<path fill="#ffffff" opacity="1.00" d=" M 380.00 330.00 C 383.34 330.01 386.67 330.01 390.01 330.01 C 390.00 333.33 389.99 336.66 389.99 339.99 C 386.66 339.99 383.32 339.99 379.99 340.00 C 379.99 336.66 380.00 333.33 380.00 330.00 Z" />
<path fill="#ffffff" opacity="1.00" d=" M 40.00 340.00 C 56.67 340.00 73.34 339.98 90.01 340.01 C 89.99 356.67 90.02 373.33 89.99 390.00 C 73.33 390.00 56.66 390.00 40.00 390.00 C 40.00 373.33 40.00 356.67 40.00 340.00 M 50.00 349.99 C 50.00 360.00 50.00 370.00 50.01 380.01 C 60.00 380.00 70.00 380.01 80.00 380.00 C 80.00 370.00 80.00 360.00 80.00 350.00 C 70.00 350.00 60.00 350.00 50.00 349.99 Z" />
<path fill="#ffffff" opacity="1.00" d=" M 140.00 340.00 C 143.33 339.99 146.66 339.99 150.00 339.99 C 150.01 343.32 150.00 346.66 150.00 349.99 C 146.66 349.99 143.33 349.99 140.00 350.01 C 140.01 346.67 140.01 343.33 140.00 340.00 Z" />
<path fill="#ffffff" opacity="1.00" d=" M 370.01 339.99 C 373.34 339.99 376.66 339.99 379.99 340.00 C 379.99 346.66 380.01 353.33 380.00 360.00 C 373.33 360.00 366.67 360.00 360.00 360.00 C 360.00 356.66 360.00 353.33 360.00 350.00 C 363.33 350.00 366.65 350.00 369.99 350.00 C 369.99 346.66 370.00 343.32 370.01 339.99 Z" />
<path fill="#ffffff" opacity="1.00" d=" M 380.00 360.00 C 383.33 360.00 386.66 360.00 390.00 360.00 C 390.00 363.33 390.00 366.67 389.99 370.01 C 386.66 370.01 383.33 370.00 380.00 370.00 C 380.00 366.67 379.99 363.33 380.00 360.00 Z" />
</g>
<g id="#000000ff">
<path fill="#000000" opacity="1.00" d=" M 30.01 30.01 C 53.34 29.99 76.67 30.01 100.00 30.00 C 100.01 53.33 100.01 76.66 100.00 100.00 C 76.67 100.01 53.34 99.99 30.01 100.01 C 30.00 76.68 29.99 53.34 30.01 30.01 M 40.00 40.00 C 40.00 56.67 40.00 73.33 40.00 90.00 C 56.66 90.00 73.33 90.01 89.99 89.99 C 90.02 73.33 90.00 56.66 90.00 40.00 C 73.33 40.00 56.67 40.00 40.00 40.00 Z" />
<path fill="#000000" opacity="1.00" d=" M 130.08 30.24 C 139.94 29.64 150.04 30.19 160.00 30.00 C 160.00 33.33 160.00 36.67 160.00 40.00 C 153.33 40.00 146.67 40.00 140.00 40.00 C 140.00 43.34 140.00 46.67 140.00 50.01 C 136.86 50.17 133.45 49.30 130.49 50.54 C 129.14 56.82 130.72 63.41 129.74 69.76 C 126.53 70.33 123.24 70.01 120.00 69.97 C 120.00 79.98 120.00 89.99 120.00 100.00 C 116.67 100.01 113.34 100.00 110.01 100.01 C 109.99 80.01 110.00 60.00 110.00 40.00 C 113.33 40.00 116.67 40.00 120.00 40.00 C 120.00 43.32 120.00 46.65 120.00 49.97 C 123.26 49.93 126.58 50.34 129.81 49.81 C 130.35 43.31 129.72 36.75 130.08 30.24 Z" />
<path fill="#000000" opacity="1.00" d=" M 180.00 29.99 C 190.00 30.01 199.99 29.99 209.99 30.01 C 210.00 33.34 210.00 36.67 210.00 40.00 C 206.67 40.00 203.33 40.00 200.00 40.00 C 200.00 46.67 200.00 53.33 200.00 60.00 C 196.67 59.99 193.34 59.99 190.01 60.00 C 189.99 66.67 190.00 73.33 190.00 80.00 C 186.66 80.00 183.33 80.00 180.00 80.00 C 180.00 76.67 180.00 73.34 180.00 70.01 C 173.34 70.00 166.67 70.00 160.00 70.00 C 160.00 73.33 160.00 76.67 160.00 80.00 C 156.67 80.00 153.33 80.00 150.00 80.00 C 149.99 83.33 149.99 86.67 149.99 90.00 C 153.33 90.00 156.66 90.00 160.00 90.00 C 160.00 100.00 160.00 110.00 160.00 120.00 C 156.66 120.00 153.33 120.00 150.00 120.00 C 149.99 123.33 150.00 126.66 150.01 129.99 C 153.34 130.00 156.67 130.00 160.00 130.00 C 160.00 133.33 160.00 136.66 160.00 140.00 C 153.33 140.01 146.67 139.99 140.00 140.00 C 140.01 136.66 140.01 133.33 140.01 130.00 C 136.67 130.01 133.34 130.01 130.01 130.01 C 130.00 126.67 130.00 123.34 130.00 120.00 C 133.33 120.00 136.66 120.00 139.99 120.00 C 140.00 116.67 140.00 113.33 140.01 110.00 C 143.34 109.99 146.67 109.99 150.00 109.99 C 150.00 103.33 150.00 96.67 149.99 90.01 C 146.66 90.01 143.33 90.00 140.00 90.00 C 139.99 76.67 140.00 63.34 140.00 50.01 C 146.67 50.00 153.33 50.00 160.00 50.00 C 160.00 53.33 160.00 56.66 160.00 59.99 C 166.66 60.01 173.33 60.01 180.00 60.00 C 180.01 50.00 179.98 39.99 180.00 29.99 Z" />
<path fill="#000000" opacity="1.00" d=" M 220.00 30.00 C 226.66 29.99 233.33 30.00 240.00 30.00 C 240.00 33.33 240.00 36.67 240.00 40.00 C 233.33 40.00 226.67 40.00 220.00 40.00 C 219.99 36.66 219.99 33.33 220.00 30.00 Z" />
<path fill="#000000" opacity="1.00" d=" M 260.00 30.00 C 263.33 29.99 266.66 29.99 270.00 29.99 C 269.99 33.33 269.99 36.66 270.00 40.00 C 266.66 40.00 263.33 40.00 260.00 40.00 C 259.99 36.67 259.99 33.33 260.00 30.00 Z" />
<path fill="#000000" opacity="1.00" d=" M 290.00 29.99 C 293.33 29.99 296.66 29.99 300.00 30.00 C 300.01 40.00 300.00 50.00 300.00 60.00 C 296.67 60.01 293.34 60.01 290.01 60.00 C 290.01 63.33 289.99 66.66 289.99 70.00 C 286.66 70.00 283.33 70.00 280.00 70.01 C 280.00 63.34 280.00 56.67 280.00 50.00 C 283.33 50.00 286.66 50.00 289.99 49.99 C 290.01 43.33 290.00 36.66 290.00 29.99 Z" />
<path fill="#000000" opacity="1.00" d=" M 330.00 29.99 C 353.34 30.01 376.67 30.00 400.00 30.00 C 400.00 53.33 400.00 76.67 400.00 100.00 C 376.67 100.01 353.34 99.99 330.01 100.01 C 330.00 76.67 330.00 53.33 330.00 29.99 M 340.00 40.00 C 340.00 56.67 339.99 73.33 340.00 89.99 C 356.66 90.01 373.33 89.99 389.99 90.01 C 390.01 73.34 389.99 56.67 390.00 40.00 C 373.33 40.00 356.67 40.00 340.00 40.00 Z" />
<path fill="#000000" opacity="1.00" d=" M 240.00 40.00 C 243.33 40.00 246.66 40.00 250.00 40.00 C 250.00 46.67 250.00 53.34 249.99 60.01 C 246.66 60.00 243.33 60.01 240.00 60.00 C 240.00 63.34 239.99 66.67 240.00 70.00 C 236.67 70.00 233.34 70.00 230.01 70.00 C 230.01 66.66 230.00 63.33 229.99 59.99 C 223.33 59.99 216.67 60.01 210.01 60.00 C 210.00 56.67 209.99 53.34 209.99 50.01 C 219.99 49.99 229.99 50.00 240.00 50.00 C 240.00 46.67 240.00 43.33 240.00 40.00 Z" />
<path fill="#000000" opacity="1.00" d=" M 270.00 40.00 C 273.33 40.00 276.66 40.00 280.00 40.00 C 280.00 43.33 280.00 46.67 280.00 50.00 C 276.67 50.00 273.34 50.00 270.01 49.99 C 270.00 46.66 270.00 43.33 270.00 40.00 Z" />
<path fill="#000000" opacity="1.00" d=" M 310.00 40.00 C 313.33 40.00 316.66 40.00 320.00 40.00 C 320.00 50.00 320.00 60.00 320.00 70.00 C 316.66 70.00 313.32 70.00 309.99 69.99 C 310.01 59.99 310.00 50.00 310.00 40.00 Z" />
<path fill="#000000" opacity="1.00" d=" M 49.99 50.01 C 59.99 50.00 69.99 50.00 80.00 50.00 C 80.00 60.00 80.00 70.00 80.00 80.00 C 70.00 80.00 60.00 80.00 50.00 80.00 C 50.00 70.00 50.01 60.00 49.99 50.01 Z" />
<path fill="#000000" opacity="1.00" d=" M 350.01 50.00 C 360.01 50.00 370.01 50.00 380.01 50.01 C 380.00 60.00 380.01 70.00 380.00 80.00 C 370.00 80.00 360.00 80.00 350.00 80.00 C 350.00 70.00 350.00 60.00 350.01 50.00 Z" />
<path fill="#000000" opacity="1.00" d=" M 200.00 60.00 C 203.33 59.99 206.67 59.99 210.01 60.00 C 210.00 63.33 209.99 66.66 209.99 70.00 C 206.66 70.00 203.33 70.00 200.00 70.00 C 200.00 66.66 200.00 63.33 200.00 60.00 Z" />
<path fill="#000000" opacity="1.00" d=" M 260.00 59.99 C 263.33 60.00 266.66 59.99 269.99 59.99 C 269.74 63.14 270.68 66.53 269.52 69.52 C 266.53 70.68 263.14 69.74 259.99 69.98 C 259.99 66.65 259.99 63.32 260.00 59.99 Z" />
<path fill="#000000" opacity="1.00" d=" M 240.00 70.00 C 243.33 70.00 246.66 70.00 249.99 70.01 C 250.00 73.34 250.00 76.67 250.00 80.00 C 253.33 79.99 256.66 80.00 260.00 80.00 C 260.01 86.67 260.00 93.33 260.00 100.00 C 256.67 100.01 253.34 100.00 250.01 100.01 C 250.00 96.67 249.98 93.34 249.99 90.00 C 246.66 90.00 243.33 90.00 240.00 90.00 C 240.00 83.33 240.00 76.67 240.00 70.00 Z" />
<path fill="#000000" opacity="1.00" d=" M 270.17 70.17 C 273.42 69.70 276.73 70.10 280.00 70.01 C 280.00 73.34 280.00 76.67 280.00 80.00 C 276.67 80.00 273.34 80.00 270.01 80.00 C 270.10 76.73 269.69 73.42 270.17 70.17 Z" />
<path fill="#000000" opacity="1.00" d=" M 160.00 80.00 C 166.67 80.00 173.33 80.00 180.00 80.00 C 179.98 86.67 180.02 93.34 179.99 100.00 C 176.67 100.00 173.34 100.00 170.01 100.01 C 170.00 96.67 169.99 93.34 169.99 90.00 C 166.66 90.00 163.33 90.00 160.00 90.00 C 160.00 86.67 160.00 83.33 160.00 80.00 Z" />
<path fill="#000000" opacity="1.00" d=" M 200.00 80.00 C 210.00 80.00 220.00 80.00 230.00 80.00 C 229.99 83.34 229.99 86.67 229.99 90.00 C 233.33 90.00 236.66 90.00 240.00 90.00 C 240.00 96.67 240.00 103.33 240.00 110.00 C 246.67 110.00 253.34 109.99 260.01 110.00 C 260.01 116.67 259.99 123.33 260.00 130.00 C 263.33 130.01 266.66 130.01 269.99 130.01 C 270.02 116.67 269.98 103.34 270.01 90.01 C 273.34 90.00 276.67 90.00 280.00 90.00 C 280.00 96.67 280.00 103.34 280.00 110.02 C 283.27 110.08 286.58 109.70 289.82 110.18 C 290.30 113.42 289.92 116.73 289.98 120.00 C 286.65 120.00 283.33 120.00 280.00 120.00 C 280.00 126.67 280.00 133.33 280.00 140.00 C 273.33 140.01 266.67 139.99 260.00 140.00 C 259.99 143.33 259.99 146.66 259.99 149.99 C 266.66 150.00 273.33 150.00 280.00 150.00 C 280.00 153.33 280.00 156.67 280.00 160.00 C 276.66 160.00 273.33 160.00 270.00 160.00 C 269.99 163.33 270.00 166.66 270.01 169.99 C 273.34 170.00 276.67 170.00 280.00 170.00 C 279.99 173.33 280.00 176.67 280.00 180.00 C 273.33 180.02 266.67 179.99 260.00 180.00 C 259.99 186.67 260.01 193.33 260.00 199.99 C 256.67 200.01 253.33 200.01 250.00 200.01 C 250.01 190.01 250.01 180.01 249.99 170.00 C 246.66 170.00 243.33 170.00 240.00 170.00 C 240.00 166.66 240.00 163.33 240.00 160.00 C 236.66 160.00 233.33 160.00 230.00 160.00 C 229.99 163.34 229.99 166.67 230.00 170.01 C 223.47 170.09 216.94 169.83 210.43 170.09 C 210.19 170.50 209.70 171.32 209.46 171.73 C 202.96 171.17 196.62 169.45 190.06 170.00 C 190.02 170.69 189.95 172.08 189.91 172.77 C 180.49 175.35 171.79 181.37 166.99 190.00 C 161.33 190.03 155.67 189.98 150.01 190.01 C 150.00 193.34 149.99 196.67 150.00 200.00 C 143.33 200.00 136.66 200.00 129.99 200.00 C 130.01 196.66 130.01 193.33 130.00 189.99 C 133.33 189.99 136.66 189.99 140.00 190.00 C 139.99 186.66 140.00 183.33 140.01 180.00 C 143.33 180.00 146.66 180.01 149.99 180.01 C 150.00 176.67 150.01 173.34 150.01 170.00 C 153.34 170.00 156.67 170.00 160.00 170.00 C 160.00 166.66 160.00 163.33 160.00 160.00 C 170.00 160.00 180.00 160.00 190.00 160.00 C 190.00 153.33 190.00 146.67 189.99 140.00 C 186.66 140.01 183.33 140.00 179.99 139.99 C 180.00 129.99 179.98 120.00 180.01 110.00 C 183.33 109.99 186.66 109.99 190.00 109.99 C 190.00 116.66 189.99 123.33 190.01 129.99 C 200.01 130.01 210.01 129.99 220.01 130.01 C 220.01 133.34 220.01 136.67 220.01 140.00 C 213.34 140.00 206.67 139.98 200.00 140.00 C 200.00 143.33 200.00 146.67 200.00 150.00 C 203.33 150.00 206.66 150.00 209.99 150.01 C 210.00 153.34 210.00 156.67 210.00 160.00 C 213.33 160.00 216.66 160.00 220.00 160.00 C 220.01 153.33 220.00 146.67 220.01 140.00 C 223.33 140.00 226.66 140.01 229.99 140.01 C 230.00 133.34 230.00 126.67 230.00 120.00 C 220.00 120.00 210.00 120.00 200.00 120.00 C 200.00 116.67 200.00 113.33 200.00 110.00 C 203.33 110.00 206.66 110.00 209.99 110.00 C 210.00 103.33 210.00 96.67 209.99 90.00 C 206.66 90.00 203.33 90.00 200.00 90.00 C 200.00 86.67 200.00 83.33 200.00 80.00 M 219.99 90.00 C 220.00 96.67 219.99 103.33 219.99 110.00 C 223.33 109.99 226.67 109.99 230.01 109.99 C 230.00 103.33 229.99 96.67 229.99 90.01 C 226.66 90.01 223.32 90.00 219.99 90.00 M 240.00 120.00 C 240.00 123.33 240.00 126.67 240.00 130.00 C 243.33 130.00 246.66 130.00 249.99 129.99 C 250.00 126.66 250.01 123.33 250.00 120.00 C 246.67 120.00 243.33 120.00 240.00 120.00 Z" />
<path fill="#000000" opacity="1.00" d=" M 290.00 80.00 C 293.33 80.00 296.67 80.00 300.00 80.00 C 300.01 86.67 299.99 93.33 300.00 100.00 C 303.33 100.01 306.66 100.01 309.99 100.01 C 310.00 93.34 310.00 86.67 310.00 80.00 C 313.33 80.00 316.66 80.00 320.00 80.00 C 320.00 90.00 320.00 100.00 320.00 110.00 C 323.33 110.00 326.66 110.00 329.99 110.01 C 330.00 113.34 330.00 116.67 330.00 120.00 C 323.33 120.00 316.66 120.00 310.00 120.00 C 310.00 116.66 310.00 113.33 309.99 109.99 C 303.50 109.66 296.80 110.66 290.44 109.56 C 290.33 109.23 290.10 108.55 289.99 108.22 C 289.97 98.81 290.03 89.41 290.00 80.00 Z" />
<path fill="#000000" opacity="1.00" d=" M 129.99 90.01 C 133.32 90.01 136.66 90.01 140.00 90.00 C 140.01 93.33 140.00 96.66 140.00 100.00 C 136.67 100.00 133.34 100.01 130.01 100.01 C 130.00 96.67 129.99 93.34 129.99 90.01 Z" />
<path fill="#000000" opacity="1.00" d=" M 190.01 90.01 C 193.34 90.00 196.67 90.00 200.00 90.00 C 200.00 93.33 200.00 96.66 200.00 100.00 C 196.66 100.01 193.32 100.00 189.99 100.00 C 189.99 96.67 190.00 93.34 190.01 90.01 Z" />
<path fill="#000000" opacity="1.00" d=" M 120.00 100.00 C 123.34 99.99 126.67 100.00 130.01 100.01 C 130.00 106.67 130.00 113.33 130.00 120.00 C 123.33 120.00 116.67 120.00 110.00 120.00 C 109.99 123.33 109.99 126.67 109.99 130.00 C 113.33 130.00 116.66 130.00 120.00 130.00 C 120.00 133.33 120.00 136.66 120.00 140.00 C 116.67 140.01 113.33 140.00 110.00 140.01 C 109.98 136.67 109.99 133.34 110.00 130.01 C 106.66 130.01 103.33 130.00 100.00 130.01 C 100.01 126.67 100.00 123.34 100.00 120.00 C 96.66 120.00 93.33 120.00 90.00 120.00 C 90.00 123.34 90.00 126.67 90.01 130.01 C 93.34 130.01 96.67 130.01 100.00 130.01 C 100.01 133.34 100.01 136.67 100.00 140.00 C 93.33 140.00 86.66 140.01 80.00 140.00 C 80.00 130.00 80.00 120.00 80.00 110.00 C 93.33 110.00 106.67 110.00 120.00 110.00 C 120.00 106.66 120.00 103.33 120.00 100.00 Z" />
<path fill="#000000" opacity="1.00" d=" M 50.00 109.99 C 53.34 109.99 56.67 109.99 60.00 110.00 C 60.02 116.66 59.99 123.33 60.00 130.00 C 63.34 130.01 66.68 130.01 70.01 130.01 C 70.01 133.34 70.00 136.67 69.99 140.00 C 66.66 140.01 63.33 140.00 60.00 140.00 C 60.01 143.34 60.01 146.67 60.01 150.01 C 56.67 150.01 53.33 150.00 49.99 149.99 C 49.99 146.66 49.99 143.33 50.00 140.00 C 46.66 140.01 43.33 140.00 40.00 140.00 C 40.00 150.00 40.00 160.00 40.00 170.00 C 43.33 170.00 46.66 170.00 49.99 169.99 C 50.00 166.66 50.01 163.33 50.00 160.00 C 56.67 160.00 63.33 160.00 70.00 160.00 C 69.99 166.67 69.99 173.33 69.99 180.00 C 66.66 179.99 63.33 179.99 60.00 180.00 C 59.99 186.67 59.99 193.33 60.00 200.00 C 66.67 200.00 73.33 200.00 80.00 200.00 C 80.00 203.33 80.00 206.67 80.00 210.00 C 86.67 210.00 93.34 210.00 100.01 210.01 C 100.01 213.34 100.01 216.67 100.00 220.00 C 96.68 220.01 93.36 220.01 90.04 220.00 C 90.20 223.15 89.33 226.56 90.47 229.56 C 93.44 230.62 96.74 229.51 99.80 230.19 C 100.18 233.35 100.19 236.64 99.79 239.80 C 96.56 240.32 93.24 239.92 89.98 239.97 C 89.91 236.72 90.36 233.41 89.81 230.19 C 86.63 229.86 83.35 229.80 80.19 230.20 C 79.61 233.36 80.40 236.64 79.80 239.80 C 76.58 240.32 73.27 239.92 70.02 239.99 C 69.98 233.32 70.01 226.66 69.99 219.99 C 66.66 219.99 63.33 219.99 60.01 220.00 C 59.99 226.66 60.00 233.33 60.00 240.00 C 53.34 240.00 46.67 240.00 40.00 240.00 C 40.00 236.67 40.00 233.33 40.00 230.00 C 43.33 230.00 46.66 230.00 49.99 229.99 C 49.99 226.66 50.01 223.33 50.01 220.01 C 46.67 220.00 43.34 219.99 40.00 220.00 C 40.00 223.33 40.00 226.66 40.00 230.00 C 36.67 230.00 33.34 230.00 30.01 230.00 C 29.99 220.00 30.00 210.00 30.00 200.00 C 33.33 200.00 36.67 200.00 40.00 200.00 C 40.00 203.33 40.00 206.67 40.00 210.00 C 43.33 210.00 46.66 210.00 49.99 209.99 C 50.00 206.66 50.01 203.33 50.00 200.00 C 46.67 200.00 43.33 200.00 40.00 200.00 C 40.00 196.67 40.00 193.33 40.00 190.00 C 36.67 190.00 33.34 190.00 30.01 189.99 C 29.99 170.00 29.99 150.00 30.01 130.00 C 33.34 130.00 36.67 130.00 40.00 130.00 C 40.00 126.67 40.00 123.33 40.00 120.00 C 43.33 120.00 46.67 120.00 50.00 120.00 C 50.01 116.66 50.00 113.33 50.00 109.99 Z" />
<path fill="#000000" opacity="1.00" d=" M 340.01 109.99 C 356.67 110.00 373.33 110.00 390.00 109.99 C 389.99 113.33 389.99 116.66 390.00 120.00 C 376.66 120.00 363.33 120.00 350.00 120.00 C 349.99 130.00 350.00 139.99 349.99 149.99 C 346.66 149.99 343.33 149.99 340.00 150.01 C 339.99 146.67 339.99 143.34 340.00 140.00 C 333.33 139.99 326.67 140.01 320.00 140.00 C 320.00 136.67 320.00 133.33 320.00 130.00 C 323.33 130.00 326.66 130.00 329.99 129.99 C 330.00 126.66 330.01 123.33 330.00 120.00 C 333.33 119.99 336.66 120.00 340.00 120.00 C 339.99 116.66 339.99 113.33 340.01 109.99 Z" />
<path fill="#000000" opacity="1.00" d=" M 160.00 120.00 C 163.33 120.00 166.67 120.00 170.00 120.00 C 170.00 123.33 170.00 126.66 169.99 129.99 C 166.66 130.00 163.33 130.00 160.00 130.00 C 160.00 126.67 160.00 123.33 160.00 120.00 Z" />
<path fill="#000000" opacity="1.00" d=" M 300.00 120.00 C 303.33 120.00 306.66 119.99 310.00 120.00 C 309.99 126.67 309.99 133.33 310.01 140.00 C 306.67 140.01 303.33 140.01 300.00 140.00 C 299.99 133.33 299.99 126.67 300.00 120.00 Z" />
<path fill="#000000" opacity="1.00" d=" M 390.00 120.00 C 393.33 120.00 396.66 120.00 400.00 120.00 C 400.00 140.00 400.00 160.00 400.00 180.00 C 396.66 180.01 393.32 180.00 389.99 180.00 C 390.00 173.33 390.00 166.67 390.00 160.00 C 386.66 160.00 383.33 160.00 380.00 160.00 C 379.99 166.67 380.02 173.33 380.00 180.00 C 376.66 180.01 373.34 180.01 370.01 180.00 C 370.01 183.33 369.99 186.66 369.99 190.00 C 366.66 190.00 363.33 190.00 360.00 190.00 C 360.00 183.33 360.00 176.67 360.00 170.00 C 363.33 170.00 366.66 170.00 369.99 169.99 C 370.01 163.33 370.00 156.66 370.01 149.99 C 366.67 150.00 363.33 150.00 360.00 150.00 C 360.00 143.33 360.00 136.67 360.00 130.00 C 363.33 130.00 366.66 130.00 369.99 130.00 C 369.99 136.67 370.01 143.33 370.01 149.99 C 376.67 150.00 383.34 150.00 390.01 149.99 C 390.00 146.66 390.00 143.33 390.01 140.01 C 386.67 139.99 383.33 139.99 380.00 139.99 C 379.99 136.66 379.99 133.33 379.99 130.00 C 383.32 130.01 386.66 130.01 389.99 130.00 C 390.00 126.67 390.00 123.33 390.00 120.00 Z" />
<path fill="#000000" opacity="1.00" d=" M 69.99 140.00 C 73.33 139.99 76.66 139.99 80.00 140.00 C 80.00 143.33 80.00 146.67 80.00 150.00 C 76.67 150.00 73.34 150.00 70.01 149.99 C 69.99 146.66 69.99 143.33 69.99 140.00 Z" />
<path fill="#000000" opacity="1.00" d=" M 120.00 140.00 C 126.67 140.00 133.33 140.01 140.00 140.00 C 139.99 143.33 139.99 146.66 140.00 150.00 C 133.33 150.00 126.67 150.00 120.00 150.00 C 120.00 146.66 120.00 143.33 120.00 140.00 Z" />
<path fill="#000000" opacity="1.00" d=" M 160.00 140.00 C 163.34 139.99 166.67 140.00 170.01 140.01 C 170.01 143.33 169.99 146.66 169.99 149.99 C 166.66 150.00 163.33 150.00 160.00 150.00 C 160.00 146.66 160.00 143.33 160.00 140.00 Z" />
<path fill="#000000" opacity="1.00" d=" M 289.99 139.99 C 293.33 140.00 296.66 139.99 300.00 140.00 C 300.01 143.33 300.01 146.67 300.01 150.00 C 296.67 150.01 293.33 150.00 289.99 149.99 C 289.99 146.66 289.99 143.32 289.99 139.99 Z" />
<path fill="#000000" opacity="1.00" d=" M 80.00 150.00 C 86.67 150.00 93.34 149.99 100.00 150.00 C 100.00 153.33 100.01 156.66 100.00 160.00 C 96.67 160.00 93.33 160.00 90.00 160.00 C 90.00 163.33 90.00 166.67 90.01 170.00 C 93.34 170.01 96.67 170.00 100.01 170.00 C 100.01 173.34 100.01 176.67 100.00 180.00 C 93.33 180.01 86.67 180.01 80.00 180.00 C 80.00 170.00 80.00 160.00 80.00 150.00 Z" />
<path fill="#000000" opacity="1.00" d=" M 110.01 150.01 C 113.34 150.00 116.67 150.00 120.00 150.00 C 120.00 153.33 120.00 156.67 120.00 160.00 C 116.67 160.00 113.33 160.00 110.00 160.00 C 110.00 156.67 110.00 153.34 110.01 150.01 Z" />
<path fill="#000000" opacity="1.00" d=" M 140.00 150.00 C 146.66 150.00 153.33 150.00 160.00 150.00 C 160.00 153.33 160.00 156.67 160.00 160.00 C 153.33 160.00 146.67 160.00 140.01 160.00 C 140.00 156.66 139.99 153.33 140.00 150.00 Z" />
<path fill="#000000" opacity="1.00" d=" M 310.01 150.01 C 320.00 149.99 330.00 150.00 340.00 150.01 C 339.99 153.34 339.99 156.67 340.01 160.00 C 343.33 160.00 346.66 159.99 350.00 160.00 C 349.99 170.00 349.99 179.99 350.01 189.99 C 346.67 189.99 343.34 190.01 340.00 190.00 C 340.01 186.67 340.00 183.33 339.99 180.00 C 336.66 179.99 333.32 179.99 329.99 179.99 C 330.00 183.33 330.01 186.66 330.01 189.99 C 333.34 189.99 336.67 190.00 340.00 190.00 C 340.00 193.33 340.00 196.67 340.00 200.00 C 343.33 200.00 346.66 200.00 350.00 200.00 C 349.99 206.67 349.99 213.33 350.01 220.00 C 356.67 220.00 363.34 219.98 370.01 220.00 C 370.00 226.67 370.00 233.33 370.00 240.00 C 373.33 240.00 376.66 240.00 379.99 240.00 C 380.00 243.33 380.00 246.67 380.00 250.00 C 373.33 250.00 366.66 250.00 360.00 250.00 C 360.00 243.33 360.00 236.67 360.00 230.00 C 353.33 230.00 346.67 230.00 340.00 230.00 C 340.00 226.66 340.00 223.33 340.00 220.00 C 336.67 219.99 333.34 219.99 330.01 220.00 C 330.00 216.67 329.99 213.33 329.99 210.00 C 326.66 210.00 323.33 210.00 320.00 210.00 C 320.00 220.00 320.00 230.00 320.00 240.00 C 316.66 240.00 313.33 240.00 310.00 240.00 C 310.00 236.66 310.00 233.32 309.99 229.99 C 303.92 229.96 297.85 230.05 291.78 230.01 C 291.45 229.89 290.81 229.64 290.48 229.52 C 290.36 229.19 290.11 228.55 289.98 228.22 C 289.95 222.15 290.04 216.08 289.99 210.01 C 293.32 210.01 296.66 210.01 300.00 210.00 C 300.01 203.33 300.01 196.67 300.00 190.00 C 296.66 189.99 293.32 189.99 289.99 189.99 C 289.99 186.66 289.99 183.33 290.00 180.00 C 293.33 180.01 296.66 180.01 300.00 180.00 C 299.99 176.67 299.99 173.35 299.99 170.02 C 303.13 170.25 306.53 169.31 309.51 170.49 C 309.63 170.81 309.89 171.46 310.01 171.78 C 310.05 177.85 309.96 183.92 310.01 190.00 C 313.34 190.00 316.67 190.00 320.00 190.00 C 320.00 193.33 320.00 196.67 320.00 200.00 C 323.33 200.00 326.66 200.00 330.00 200.00 C 330.00 196.66 330.00 193.33 330.01 190.00 C 326.67 190.00 323.33 190.00 320.00 190.00 C 320.00 183.33 320.00 176.66 320.00 169.99 C 316.73 169.91 313.42 170.30 310.18 169.82 C 309.70 163.25 310.15 156.61 310.01 150.01 Z" />
<path fill="#000000" opacity="1.00" d=" M 349.99 150.00 C 353.33 150.00 356.66 150.00 360.00 150.00 C 360.00 153.33 360.00 156.66 360.00 160.00 C 356.66 160.00 353.33 160.00 350.00 160.00 C 350.00 156.66 350.00 153.33 349.99 150.00 Z" />
<path fill="#000000" opacity="1.00" d=" M 120.00 160.00 C 123.33 160.00 126.67 160.00 130.00 160.00 C 130.00 163.33 130.00 166.67 130.01 170.00 C 133.34 170.01 136.67 170.01 140.01 170.00 C 140.01 173.34 140.01 176.67 140.01 180.00 C 133.34 180.01 126.67 180.00 120.00 180.00 C 120.00 173.33 120.00 166.67 120.00 160.00 Z" />
<path fill="#000000" opacity="1.00" d=" M 280.00 160.00 C 283.33 160.00 286.66 160.00 290.00 160.00 C 290.00 163.33 290.00 166.66 289.99 169.99 C 286.66 170.00 283.33 170.00 280.00 170.00 C 280.00 166.67 280.00 163.33 280.00 160.00 Z" />
<path fill="#000000" opacity="1.00" d=" M 100.00 180.00 C 103.33 179.99 106.66 179.99 109.99 179.99 C 109.74 183.14 110.68 186.53 109.52 189.52 C 106.54 190.68 103.15 189.74 100.00 189.99 C 99.99 186.66 99.99 183.33 100.00 180.00 Z" />
<path fill="#000000" opacity="1.00" d=" M 229.46 180.17 C 232.96 179.93 236.48 179.99 239.99 179.99 C 239.99 183.33 239.99 186.67 239.99 190.02 C 239.25 190.01 237.76 190.00 237.02 189.99 C 235.06 186.29 231.88 183.52 229.46 180.17 Z" />
<path fill="#000000" opacity="1.00" d=" M 189.47 189.55 C 193.72 187.83 198.03 194.17 194.18 197.18 C 191.83 200.22 186.93 198.12 186.35 194.76 C 186.00 192.56 187.29 190.18 189.47 189.55 Z" />
<path fill="#000000" opacity="1.00" d=" M 213.46 189.54 C 215.84 188.78 218.76 189.93 219.42 192.48 C 221.07 196.32 215.50 200.74 212.31 197.67 C 209.09 195.83 209.95 190.48 213.46 189.54 Z" />
<path fill="#000000" opacity="1.00" d=" M 90.01 189.99 C 93.34 189.99 96.67 189.99 100.00 189.99 C 100.00 193.32 100.00 196.66 100.00 200.00 C 96.67 200.00 93.34 200.00 90.00 200.00 C 90.00 196.66 90.00 193.33 90.01 189.99 Z" />
<path fill="#000000" opacity="1.00" d=" M 110.17 190.17 C 113.42 189.69 116.73 190.10 120.00 190.01 C 120.00 193.34 120.00 196.67 120.00 200.00 C 123.33 200.00 126.66 200.00 129.99 200.00 C 129.92 203.26 130.32 206.58 129.81 209.82 C 123.25 210.32 116.61 209.84 110.01 209.99 C 110.15 203.39 109.71 196.75 110.17 190.17 Z" />
<path fill="#000000" opacity="1.00" d=" M 270.01 190.01 C 273.34 190.00 276.67 190.00 280.00 190.00 C 280.00 196.66 280.00 203.32 280.00 209.99 C 276.73 209.90 273.42 210.30 270.18 209.82 C 269.71 203.25 270.15 196.61 270.01 190.01 Z" />
<path fill="#000000" opacity="1.00" d=" M 379.99 190.00 C 383.33 189.99 386.66 189.99 390.00 189.99 C 389.99 193.33 389.99 196.66 390.00 200.00 C 386.66 200.00 383.33 200.00 380.00 200.00 C 379.99 196.66 379.99 193.33 379.99 190.00 Z" />
<path fill="#000000" opacity="1.00" d=" M 150.00 200.00 C 154.46 200.00 158.92 200.00 163.38 199.99 C 162.96 203.32 162.96 206.68 163.36 210.01 C 162.52 210.01 160.83 210.01 159.99 210.01 C 160.01 213.33 160.02 216.66 160.01 219.98 C 162.32 219.98 164.64 219.99 166.96 220.01 C 169.20 223.91 172.23 227.29 175.67 230.17 C 174.53 233.32 173.61 236.62 174.23 240.00 C 172.81 240.00 171.39 240.00 169.98 240.00 C 169.91 243.27 170.30 246.58 169.82 249.83 C 163.31 250.14 156.69 250.14 150.17 249.83 C 149.69 246.58 150.10 243.27 150.01 240.00 C 153.34 240.00 156.67 240.00 160.00 240.00 C 160.00 236.66 160.00 233.33 160.00 230.00 C 156.67 230.00 153.34 230.00 150.01 230.01 C 150.00 233.34 149.99 236.67 150.01 240.00 C 146.67 240.00 143.33 240.00 140.00 240.00 C 139.99 236.65 139.99 233.31 140.00 229.98 C 136.86 229.75 133.47 230.69 130.50 229.50 C 129.31 226.87 130.25 223.80 130.01 221.00 C 130.28 217.51 129.31 213.79 130.46 210.46 C 136.79 209.29 143.51 210.36 149.99 210.02 C 150.00 206.68 150.00 203.34 150.00 200.00 Z" />
<path fill="#000000" opacity="1.00" d=" M 370.00 200.00 C 373.33 200.00 376.67 200.00 380.00 200.00 C 379.98 206.67 380.01 213.33 380.00 220.00 C 376.67 220.00 373.34 220.01 370.01 220.00 C 370.00 213.34 370.01 206.67 370.00 200.00 Z" />
<path fill="#000000" opacity="1.00" d=" M 390.00 200.00 C 393.33 200.00 396.66 200.00 400.00 200.00 C 400.00 210.00 400.00 220.00 400.00 230.00 C 396.67 230.00 393.34 230.00 390.01 230.01 C 390.00 233.34 389.99 236.67 390.00 240.00 C 386.66 240.00 383.33 240.00 379.99 240.00 C 380.02 233.33 379.98 226.67 380.00 220.00 C 383.33 220.00 386.66 220.01 389.99 220.01 C 390.00 213.34 390.00 206.67 390.00 200.00 Z" />
<path fill="#000000" opacity="1.00" d=" M 262.62 210.00 C 264.89 210.20 267.41 209.39 269.52 210.48 C 270.58 213.38 270.04 216.73 269.83 219.77 C 269.24 219.91 268.07 220.20 267.48 220.34 C 266.31 216.70 264.70 213.21 262.62 210.00 Z" />
<path fill="#000000" opacity="1.00" d=" M 223.51 214.47 C 225.89 213.47 228.95 215.31 228.75 218.00 C 229.15 221.27 224.37 223.14 222.33 220.67 C 220.39 218.96 221.13 215.44 223.51 214.47 Z" />
<path fill="#000000" opacity="1.00" d=" M 242.48 214.43 C 244.90 213.52 247.96 215.26 247.76 218.00 C 248.08 221.29 243.40 223.12 241.33 220.67 C 239.36 218.91 240.17 215.49 242.48 214.43 Z" />
<path fill="#000000" opacity="1.00" d=" M 270.48 220.48 C 273.46 219.32 276.86 220.26 280.00 220.02 C 280.00 223.35 279.99 226.68 280.00 230.01 C 276.67 230.00 273.34 230.00 270.01 229.99 C 270.25 226.85 269.32 223.46 270.48 220.48 Z" />
<path fill="#000000" opacity="1.00" d=" M 120.00 230.02 C 123.27 230.09 126.58 229.69 129.82 230.18 C 130.31 233.42 129.91 236.73 129.98 240.00 C 126.66 240.00 123.33 240.00 120.00 240.00 C 120.00 236.67 120.00 233.34 120.00 230.02 Z" />
<path fill="#000000" opacity="1.00" d=" M 280.00 230.01 C 283.27 230.10 286.58 229.69 289.83 230.17 C 290.30 233.42 289.90 236.73 289.99 240.00 C 286.66 240.00 283.33 240.00 280.00 240.00 C 280.00 236.67 280.00 233.34 280.00 230.01 Z" />
<path fill="#000000" opacity="1.00" d=" M 330.01 229.99 C 333.34 229.99 336.67 229.99 340.00 230.00 C 340.00 233.33 340.00 236.66 339.99 240.00 C 336.66 240.00 333.33 240.00 330.00 240.00 C 330.00 236.66 330.00 233.33 330.01 229.99 Z" />
<path fill="#000000" opacity="1.00" d=" M 189.36 237.34 C 194.59 237.79 199.55 239.74 204.77 240.21 C 205.90 240.70 206.43 241.92 207.26 242.77 C 210.55 247.01 215.16 250.00 219.99 252.24 C 219.99 254.83 220.00 257.42 220.01 260.01 C 226.67 260.00 233.33 259.99 240.00 260.00 C 240.00 263.33 239.99 266.66 240.00 270.00 C 229.99 270.00 219.99 270.00 209.99 269.99 C 210.01 263.33 210.00 256.67 209.99 250.00 C 206.66 250.00 203.33 250.00 200.00 250.00 C 200.01 246.67 200.01 243.33 200.01 240.00 C 194.91 239.98 189.81 240.10 184.71 239.87 C 186.23 238.98 187.74 238.05 189.36 237.34 Z" />
<path fill="#000000" opacity="1.00" d=" M 30.00 240.00 C 33.33 240.00 36.67 240.00 40.00 240.00 C 40.00 246.67 40.00 253.33 40.00 260.00 C 36.66 260.01 33.32 260.01 29.99 260.00 C 30.01 253.33 30.00 246.67 30.00 240.00 Z" />
<path fill="#000000" opacity="1.00" d=" M 60.00 240.00 C 63.34 240.00 66.68 240.00 70.02 239.99 C 70.07 243.26 69.67 246.57 70.19 249.81 C 73.42 250.31 76.73 249.94 80.00 249.97 C 79.99 253.31 80.00 256.65 80.00 260.00 C 83.34 259.99 86.67 260.00 90.01 260.01 C 90.00 263.33 89.99 266.66 89.99 269.99 C 93.33 269.99 96.67 269.99 100.01 270.00 C 100.01 266.66 100.01 263.33 100.01 260.00 C 103.33 259.99 106.66 259.99 109.99 260.00 C 109.99 263.33 110.01 266.66 110.01 270.00 C 113.34 270.00 116.67 270.00 120.00 270.00 C 120.00 266.66 120.00 263.33 120.00 260.00 C 116.66 259.99 113.33 259.99 109.99 260.00 C 109.99 256.67 109.99 253.34 110.01 250.01 C 122.75 250.00 135.49 250.00 148.22 249.99 C 148.55 250.11 149.19 250.36 149.51 250.49 C 150.69 253.46 149.74 256.85 149.98 260.00 C 143.33 260.02 136.67 259.99 130.01 259.99 C 130.00 266.66 130.00 273.33 130.00 280.00 C 123.33 280.00 116.67 280.00 110.00 280.00 C 109.99 286.67 110.00 293.33 109.99 300.00 C 103.34 300.02 96.69 299.99 90.04 299.99 C 90.17 303.14 89.37 306.53 90.46 309.54 C 93.46 310.64 96.85 309.81 100.01 309.96 C 100.00 313.30 100.00 316.65 100.00 320.00 C 96.66 320.00 93.32 320.00 89.98 319.99 C 89.93 316.73 90.32 313.42 89.81 310.18 C 86.58 309.69 83.27 310.07 80.00 310.02 C 80.00 303.35 80.00 296.67 80.00 290.00 C 76.67 290.00 73.34 290.00 70.01 289.99 C 70.00 286.66 70.00 283.33 70.00 280.00 C 73.33 280.00 76.67 280.00 80.00 280.00 C 80.00 276.66 80.00 273.33 80.00 270.00 C 76.67 270.00 73.34 270.00 70.01 270.00 C 69.95 263.92 70.08 257.84 70.02 251.77 C 69.88 251.46 69.61 250.84 69.47 250.53 C 66.56 249.26 63.11 250.21 59.99 250.05 C 60.00 246.70 59.99 243.35 60.00 240.00 M 90.00 280.00 C 90.00 283.34 90.00 286.67 90.01 290.01 C 93.34 290.01 96.66 290.01 99.99 290.01 C 100.00 286.67 100.01 283.34 100.00 280.00 C 96.67 280.00 93.33 280.00 90.00 280.00 Z" />
<path fill="#000000" opacity="1.00" d=" M 263.97 239.99 C 269.31 240.00 274.66 240.00 280.00 240.00 C 280.00 243.33 280.00 246.66 280.00 250.00 C 283.33 250.00 286.66 250.00 289.99 250.01 C 290.01 253.34 290.01 256.67 290.00 260.01 C 280.00 259.98 270.01 260.00 260.01 260.01 C 259.99 273.34 260.01 286.67 260.00 300.00 C 256.67 299.99 253.34 299.99 250.01 299.99 C 250.00 306.70 250.00 313.41 250.00 320.12 C 246.67 319.93 243.33 319.99 240.00 320.00 C 240.00 323.33 240.00 326.66 240.01 330.00 C 230.01 330.00 220.00 330.00 210.00 330.01 C 210.00 326.67 210.00 323.33 210.00 320.00 C 203.33 320.00 196.67 320.00 190.00 320.00 C 190.00 316.66 190.00 313.32 189.99 309.99 C 180.00 310.00 170.00 310.00 160.00 310.00 C 160.00 316.67 160.00 323.33 160.00 330.00 C 156.66 330.00 153.33 330.00 150.00 330.00 C 150.00 323.33 150.01 316.66 149.99 309.99 C 146.66 309.99 143.33 309.99 140.01 310.00 C 140.00 313.33 140.00 316.66 139.99 320.00 C 136.66 320.00 133.33 320.00 130.00 320.00 C 130.00 326.66 130.00 333.33 130.01 339.99 C 126.67 340.00 123.34 340.00 120.00 340.00 C 120.00 343.33 120.00 346.67 120.00 350.00 C 116.66 350.00 113.33 350.00 110.00 349.99 C 109.99 339.99 110.00 330.00 110.00 320.00 C 113.33 320.00 116.67 320.00 120.00 320.00 C 120.00 316.66 120.00 313.33 120.00 310.00 C 116.67 310.00 113.34 310.00 110.01 309.99 C 109.99 306.66 109.99 303.33 109.99 300.00 C 116.66 300.00 123.32 300.00 129.99 300.01 C 130.01 293.34 130.01 286.67 130.00 280.00 C 133.33 280.00 136.67 280.00 140.00 280.00 C 140.01 286.67 139.99 293.33 140.00 300.00 C 143.33 300.01 146.66 300.01 149.99 300.01 C 150.00 293.34 150.00 286.67 150.00 280.00 C 160.00 280.00 170.00 280.00 180.00 280.00 C 180.00 283.34 180.01 286.67 180.00 290.01 C 173.33 290.00 166.67 290.00 160.00 290.00 C 160.00 293.33 160.00 296.67 160.00 300.00 C 173.34 299.98 186.67 300.01 200.00 299.99 C 200.00 293.33 200.00 286.66 200.00 280.00 C 206.67 280.00 213.33 280.00 220.00 280.00 C 220.00 286.67 220.01 293.33 220.00 300.00 C 216.67 300.01 213.34 300.01 210.01 300.00 C 210.01 303.33 209.99 306.66 209.99 309.99 C 213.32 309.99 216.66 309.99 220.00 310.00 C 220.01 313.33 220.00 316.66 220.00 320.00 C 223.33 320.00 226.67 319.99 230.00 320.00 C 230.00 316.67 230.00 313.34 230.01 310.01 C 233.34 310.00 236.67 310.00 240.00 310.00 C 240.00 303.33 240.00 296.67 240.00 290.00 C 243.33 290.00 246.66 290.00 249.99 289.99 C 250.00 286.66 250.00 283.33 250.00 280.00 C 246.67 280.00 243.33 280.00 240.00 280.00 C 240.00 276.66 240.00 273.33 240.00 270.00 C 243.33 270.00 246.66 270.00 249.99 269.99 C 249.98 265.67 250.00 261.35 249.99 257.02 C 252.59 257.98 256.25 258.85 258.15 256.16 C 260.00 253.37 258.27 250.05 257.51 247.19 C 259.89 245.00 262.02 242.57 263.97 239.99 Z" />
<path fill="#000000" opacity="1.00" d=" M 300.00 240.00 C 303.33 240.00 306.66 240.00 310.00 240.00 C 309.99 246.67 309.99 253.34 310.01 260.01 C 316.67 260.00 323.33 259.99 329.99 260.00 C 330.00 263.33 330.00 266.66 330.01 269.99 C 333.34 269.99 336.67 269.99 340.01 269.99 C 340.00 260.00 340.01 250.00 339.99 240.00 C 343.33 240.00 346.66 240.00 350.00 240.00 C 349.99 243.33 350.00 246.66 350.01 249.99 C 353.34 250.00 356.67 250.00 360.00 250.00 C 359.99 253.33 360.00 256.66 360.00 260.00 C 356.67 260.01 353.34 260.00 350.01 260.00 C 349.99 273.33 349.98 286.67 350.01 300.00 C 346.67 300.01 343.33 300.01 340.00 300.00 C 340.01 296.66 340.01 293.33 340.01 290.00 C 336.67 290.00 333.34 290.01 330.01 290.01 C 330.01 293.34 330.01 296.67 330.01 300.01 C 326.67 300.00 323.33 299.99 320.00 300.00 C 320.00 296.66 320.00 293.33 320.00 290.00 C 323.33 290.00 326.67 290.00 330.01 290.01 C 330.00 286.67 330.00 283.33 330.00 280.00 C 326.67 280.00 323.33 280.00 320.00 280.00 C 320.00 276.66 320.00 273.33 320.00 270.00 C 309.99 270.00 299.99 270.00 289.99 269.99 C 289.99 266.66 289.99 263.33 290.00 260.01 C 293.33 260.01 296.66 260.00 300.00 260.00 C 300.01 253.33 299.99 246.67 300.00 240.00 Z" />
<path fill="#000000" opacity="1.00" d=" M 89.99 250.01 C 93.33 250.00 96.67 249.99 100.01 250.00 C 100.01 253.33 100.01 256.67 100.01 260.00 C 96.67 260.00 93.34 260.00 90.01 260.01 C 90.00 256.67 89.99 253.34 89.99 250.01 Z" />
<path fill="#000000" opacity="1.00" d=" M 170.49 250.49 C 173.47 249.31 176.86 250.26 180.01 250.02 C 180.01 253.35 180.00 256.67 180.00 260.00 C 176.67 260.00 173.34 260.00 170.01 260.01 C 170.26 256.86 169.31 253.47 170.49 250.49 Z" />
<path fill="#000000" opacity="1.00" d=" M 390.01 250.01 C 393.34 250.00 396.67 250.00 400.00 250.00 C 399.99 253.33 400.00 256.66 400.00 260.00 C 396.66 260.01 393.32 260.00 389.99 260.00 C 389.99 256.66 389.99 253.34 390.01 250.01 Z" />
<path fill="#000000" opacity="1.00" d=" M 40.00 260.00 C 46.66 259.99 53.33 260.00 60.00 260.00 C 60.01 263.33 60.01 266.66 60.01 270.00 C 56.67 269.99 53.34 269.99 50.01 270.00 C 50.00 273.33 50.00 276.67 50.00 280.00 C 46.67 280.00 43.33 280.00 40.00 280.00 C 40.00 273.33 40.00 266.66 40.00 260.00 Z" />
<path fill="#000000" opacity="1.00" d=" M 149.98 260.00 C 153.32 259.99 156.66 259.99 160.00 260.00 C 160.00 263.33 159.99 266.67 160.00 270.00 C 156.67 270.00 153.34 270.00 150.01 269.99 C 149.99 266.66 149.99 263.33 149.98 260.00 Z" />
<path fill="#000000" opacity="1.00" d=" M 189.99 260.00 C 193.32 259.99 196.66 259.99 200.00 260.00 C 200.00 266.67 200.00 273.33 200.00 280.00 C 196.67 280.00 193.33 280.00 190.00 280.00 C 190.00 273.33 190.01 266.67 189.99 260.00 Z" />
<path fill="#000000" opacity="1.00" d=" M 360.00 260.00 C 363.34 259.99 366.67 259.99 370.01 260.00 C 370.01 263.33 370.00 266.66 370.00 269.99 C 373.33 269.99 376.67 269.99 380.00 269.99 C 380.00 273.32 380.01 276.66 380.00 280.00 C 373.33 280.00 366.67 280.00 360.00 280.00 C 360.00 273.33 360.00 266.66 360.00 260.00 Z" />
<path fill="#000000" opacity="1.00" d=" M 380.00 260.00 C 383.33 259.99 386.66 259.99 389.99 260.00 C 389.74 263.14 390.68 266.53 389.51 269.51 C 386.53 270.69 383.14 269.74 380.00 269.99 C 379.99 266.65 379.99 263.32 380.00 260.00 Z" />
<path fill="#000000" opacity="1.00" d=" M 270.01 270.01 C 273.34 270.00 276.67 270.00 280.00 270.00 C 280.00 276.67 280.00 283.33 280.00 290.00 C 283.33 290.00 286.66 290.00 289.99 290.00 C 289.99 293.33 290.00 296.66 290.01 299.99 C 286.67 299.99 283.34 300.00 280.00 300.01 C 280.00 303.34 279.99 306.67 280.00 310.00 C 273.33 310.00 266.66 310.00 259.99 309.99 C 259.99 306.66 259.99 303.33 260.00 300.00 C 263.33 300.00 266.66 300.01 269.99 300.01 C 270.01 290.01 269.99 280.01 270.01 270.01 Z" />
<path fill="#000000" opacity="1.00" d=" M 390.18 270.18 C 393.41 269.69 396.73 270.09 400.00 270.01 C 400.00 283.34 400.00 296.67 400.00 310.00 C 393.33 310.00 386.66 310.00 379.99 309.99 C 379.99 306.66 379.99 303.33 380.00 300.00 C 383.32 300.01 386.66 300.01 389.99 300.01 C 389.99 296.67 390.01 293.34 390.01 290.01 C 386.67 290.01 383.34 290.01 380.00 290.00 C 379.99 286.67 379.99 283.33 380.00 280.00 C 383.33 280.00 386.67 279.99 390.01 280.00 C 390.09 276.73 389.69 273.42 390.18 270.18 Z" />
<path fill="#000000" opacity="1.00" d=" M 50.00 280.00 C 53.33 280.00 56.67 280.00 60.00 280.00 C 60.01 286.67 59.99 293.33 60.00 300.00 C 63.34 300.01 66.67 300.01 70.00 300.00 C 70.01 303.33 70.01 306.66 70.01 309.99 C 66.67 309.99 63.34 309.99 60.00 310.01 C 60.01 313.33 60.01 316.66 60.00 320.00 C 50.00 320.00 40.00 320.00 30.00 320.00 C 30.00 316.67 30.00 313.34 30.01 310.01 C 36.67 309.99 43.33 310.01 49.99 309.99 C 50.01 306.66 50.01 303.33 50.01 300.00 C 43.34 299.99 36.66 300.02 29.99 300.00 C 29.99 296.67 29.99 293.34 30.01 290.01 C 36.67 289.99 43.33 290.01 49.99 289.99 C 50.00 286.66 50.01 283.33 50.00 280.00 Z" />
<path fill="#000000" opacity="1.00" d=" M 300.01 280.00 C 303.33 280.00 306.66 280.00 310.00 280.00 C 309.99 286.67 310.00 293.33 309.99 300.00 C 306.66 300.01 303.33 300.00 300.01 300.00 C 300.00 293.33 299.98 286.67 300.01 280.00 Z" />
<path fill="#000000" opacity="1.00" d=" M 360.00 290.00 C 363.33 290.00 366.66 290.00 369.99 290.01 C 370.01 296.67 370.01 303.33 369.99 309.99 C 366.66 310.00 363.33 310.00 360.00 310.00 C 360.00 303.33 360.00 296.67 360.00 290.00 Z" />
<path fill="#000000" opacity="1.00" d=" M 290.01 299.99 C 293.34 299.99 296.67 299.99 300.01 300.00 C 300.01 303.33 300.01 306.66 300.01 310.00 C 296.66 309.99 293.32 309.99 289.99 309.99 C 289.99 306.66 290.00 303.32 290.01 299.99 Z" />
<path fill="#000000" opacity="1.00" d=" M 309.99 300.00 C 313.33 299.99 316.66 299.99 320.00 300.00 C 320.00 303.33 320.00 306.66 320.00 310.00 C 323.33 310.00 326.66 310.00 329.99 310.00 C 329.99 306.66 330.00 303.33 330.01 300.01 C 333.34 300.01 336.67 300.00 340.00 300.00 C 339.98 303.33 339.99 306.66 340.00 309.99 C 346.66 310.00 353.33 310.00 360.00 310.00 C 360.00 313.33 360.00 316.66 360.00 320.00 C 363.33 320.00 366.66 320.00 370.00 320.00 C 370.00 323.33 370.00 326.66 370.01 330.00 C 373.34 330.01 376.67 330.01 380.00 330.00 C 380.00 333.33 379.99 336.66 379.99 340.00 C 376.66 339.99 373.34 339.99 370.01 339.99 C 370.00 343.32 369.99 346.66 369.99 350.00 C 366.65 350.00 363.33 350.00 360.00 350.00 C 360.00 353.33 360.00 356.66 360.00 360.00 C 366.67 360.00 373.33 360.00 380.00 360.00 C 379.99 363.33 380.00 366.67 380.00 370.00 C 376.67 370.01 373.33 370.01 370.00 370.01 C 370.00 373.33 370.01 376.67 370.00 380.00 C 363.34 380.01 356.67 379.99 350.00 380.00 C 350.00 383.33 350.01 386.66 350.01 389.99 C 346.67 390.00 343.33 390.01 340.00 390.00 C 339.98 380.00 340.01 370.00 340.00 360.00 C 330.00 360.00 320.01 360.00 310.02 360.00 C 310.07 363.26 309.69 366.58 310.18 369.82 C 316.75 370.31 323.39 369.83 329.99 370.01 C 330.01 373.33 330.01 376.66 330.01 380.00 C 326.67 380.00 323.33 380.00 320.00 380.00 C 320.00 386.67 320.00 393.33 320.00 400.00 C 313.33 400.00 306.66 400.00 300.00 400.00 C 299.99 396.66 299.99 393.32 300.00 389.99 C 303.33 389.99 306.66 389.99 310.00 389.99 C 309.65 383.50 310.67 376.79 309.56 370.44 C 306.53 369.39 303.16 370.19 299.99 370.03 C 299.99 366.69 299.99 363.34 300.00 360.00 C 296.66 360.00 293.33 360.00 290.00 360.00 C 290.01 353.33 290.00 346.66 290.01 339.99 C 293.33 339.99 296.66 339.99 300.00 340.00 C 299.99 343.33 299.99 346.67 300.00 350.00 C 303.33 349.99 306.66 349.99 310.00 349.99 C 310.00 343.33 310.00 336.67 310.00 330.01 C 306.66 330.01 303.33 330.01 300.00 330.00 C 299.99 326.66 299.99 323.33 300.00 320.00 C 303.33 320.00 306.66 319.99 310.00 320.00 C 310.00 313.33 310.00 306.66 309.99 300.00 M 320.00 320.00 C 320.00 330.00 320.00 340.00 320.00 350.00 C 330.00 350.00 340.01 350.00 350.01 349.99 C 349.99 339.99 350.00 330.00 350.00 320.00 C 340.00 320.00 330.00 320.00 320.00 320.00 Z" />
<path fill="#000000" opacity="1.00" d=" M 170.00 320.00 C 176.67 320.00 183.33 320.00 190.00 320.00 C 189.99 323.33 190.00 326.66 190.01 329.99 C 193.34 330.00 196.67 330.00 200.00 330.00 C 200.00 340.00 200.00 350.00 200.00 360.00 C 196.66 360.00 193.33 360.00 190.00 360.00 C 189.99 366.67 190.00 373.33 190.01 380.00 C 193.34 379.99 196.67 379.99 200.00 380.00 C 200.00 376.66 200.00 373.33 200.00 370.00 C 203.33 370.00 206.66 370.00 209.99 370.00 C 209.99 373.34 210.00 376.67 210.01 380.01 C 216.67 380.00 223.33 380.00 229.99 380.01 C 230.00 373.34 230.00 366.67 230.00 360.00 C 233.33 360.00 236.67 360.00 240.00 360.00 C 240.00 356.66 240.00 353.33 240.00 350.00 C 243.33 350.00 246.66 350.00 249.99 350.01 C 250.00 356.67 250.00 363.33 249.99 369.99 C 246.66 370.00 243.33 370.00 240.00 370.00 C 240.00 380.00 240.00 390.00 240.00 400.00 C 233.33 400.00 226.67 400.00 220.00 400.00 C 219.99 396.66 219.99 393.33 220.00 390.00 C 200.00 390.01 180.00 389.98 160.00 390.02 C 160.00 386.67 160.00 383.33 160.00 380.00 C 163.33 380.00 166.66 380.00 169.99 380.01 C 169.99 376.67 169.99 373.34 170.00 370.01 C 173.34 370.01 176.67 370.01 180.00 370.00 C 180.00 366.66 180.00 363.33 180.00 360.00 C 176.67 360.00 173.33 360.00 170.00 360.00 C 170.00 356.66 170.00 353.32 170.01 349.99 C 173.34 349.99 176.67 349.99 180.01 350.00 C 180.00 343.33 180.00 336.67 180.01 330.00 C 176.67 330.00 173.34 330.01 170.01 330.01 C 170.00 326.67 170.00 323.34 170.00 320.00 Z" />
<path fill="#000000" opacity="1.00" d=" M 250.00 320.12 C 263.33 319.85 276.67 320.07 290.00 320.00 C 290.00 326.66 290.00 333.33 290.01 339.99 C 286.67 340.00 283.33 340.00 280.00 340.01 C 280.00 346.67 280.00 353.33 280.00 360.00 C 276.66 360.00 273.33 360.00 270.00 360.00 C 270.00 353.33 270.00 346.67 269.99 340.00 C 266.66 340.01 263.33 340.01 260.00 340.00 C 260.01 336.67 260.01 333.35 260.01 330.03 C 256.84 330.22 253.44 329.35 250.42 330.45 C 249.38 333.43 250.50 336.74 249.81 339.81 C 246.64 340.17 243.35 340.18 240.19 339.80 C 239.68 336.57 240.09 333.26 240.01 330.00 C 243.26 329.93 246.57 330.35 249.79 329.76 C 250.26 326.57 249.91 323.33 250.00 320.12 Z" />
<path fill="#000000" opacity="1.00" d=" M 380.00 320.00 C 386.67 320.00 393.33 320.00 400.00 320.00 C 400.00 326.67 400.00 333.33 400.00 340.00 C 396.66 340.01 393.32 340.00 389.99 339.99 C 389.99 336.66 390.00 333.33 390.01 330.01 C 386.67 330.01 383.34 330.01 380.00 330.00 C 379.99 326.67 379.99 323.33 380.00 320.00 Z" />
<path fill="#000000" opacity="1.00" d=" M 30.01 330.00 C 53.34 330.00 76.68 330.00 100.01 330.01 C 100.00 353.34 100.00 376.67 100.00 400.00 C 76.67 400.00 53.33 400.00 30.00 400.00 C 30.00 376.67 29.99 353.34 30.01 330.00 M 40.00 340.00 C 40.00 356.67 40.00 373.33 40.00 390.00 C 56.66 390.00 73.33 390.00 89.99 390.00 C 90.02 373.33 89.99 356.67 90.01 340.01 C 73.34 339.98 56.67 340.00 40.00 340.00 Z" />
<path fill="#000000" opacity="1.00" d=" M 139.99 330.01 C 143.33 330.00 146.66 330.01 149.99 330.01 C 149.99 333.33 149.99 336.66 150.00 339.99 C 146.66 339.99 143.33 339.99 140.00 340.00 C 139.99 336.66 139.99 333.33 139.99 330.01 Z" />
<path fill="#000000" opacity="1.00" d=" M 329.99 330.01 C 333.33 330.00 336.67 329.99 340.01 329.99 C 340.01 333.33 340.00 336.66 340.00 340.00 C 336.66 340.00 333.33 340.00 329.99 340.01 C 329.99 336.67 329.99 333.34 329.99 330.01 Z" />
<path fill="#000000" opacity="1.00" d=" M 130.01 339.99 C 133.34 339.99 136.67 339.99 140.00 340.00 C 140.01 343.33 140.01 346.67 140.00 350.01 C 136.66 350.00 133.32 349.99 129.99 349.99 C 129.99 346.66 130.00 343.32 130.01 339.99 Z" />
<path fill="#000000" opacity="1.00" d=" M 150.00 339.99 C 153.33 339.99 156.66 339.99 160.00 340.00 C 160.00 353.33 160.00 366.66 160.00 380.00 C 156.65 380.01 153.30 380.00 149.95 380.00 C 149.79 383.11 150.73 386.56 149.47 389.47 C 146.56 390.73 143.12 389.79 140.00 389.95 C 140.00 393.30 140.01 396.65 140.00 400.00 C 136.67 400.00 133.33 400.00 130.00 400.00 C 130.01 393.33 130.00 386.66 130.01 380.00 C 133.34 379.99 136.67 379.99 140.00 380.00 C 139.99 376.66 139.99 373.33 139.99 370.00 C 143.32 370.01 146.66 370.01 149.99 370.00 C 150.00 366.66 150.00 363.33 150.00 360.00 C 146.67 360.00 143.33 360.00 140.00 360.00 C 139.99 356.66 139.99 353.33 140.00 350.01 C 143.33 349.99 146.66 349.99 150.00 349.99 C 150.00 346.66 150.01 343.32 150.00 339.99 Z" />
<path fill="#000000" opacity="1.00" d=" M 209.99 340.00 C 213.33 339.99 216.66 339.99 220.00 340.00 C 220.00 346.67 220.01 353.33 220.00 360.00 C 216.67 360.00 213.33 360.00 210.00 360.00 C 210.01 353.33 210.00 346.67 209.99 340.00 Z" />
<path fill="#000000" opacity="1.00" d=" M 379.99 340.00 C 383.32 339.99 386.66 339.99 389.99 339.99 C 390.00 346.66 389.99 353.33 390.00 360.00 C 386.66 360.00 383.33 360.00 380.00 360.00 C 380.01 353.33 379.99 346.66 379.99 340.00 Z" />
<path fill="#000000" opacity="1.00" d=" M 50.00 349.99 C 60.00 350.00 70.00 350.00 80.00 350.00 C 80.00 360.00 80.00 370.00 80.00 380.00 C 70.00 380.01 60.00 380.00 50.01 380.01 C 50.00 370.00 50.00 360.00 50.00 349.99 Z" />
<path fill="#000000" opacity="1.00" d=" M 120.00 360.00 C 123.33 360.00 126.67 360.00 130.00 360.00 C 130.00 366.67 129.99 373.33 130.01 380.00 C 123.34 380.01 116.66 380.01 109.99 380.00 C 109.99 376.67 109.99 373.34 110.01 370.01 C 113.34 370.00 116.67 370.00 120.00 370.00 C 120.00 366.66 120.00 363.33 120.00 360.00 Z" />
<path fill="#000000" opacity="1.00" d=" M 390.00 360.00 C 393.33 360.00 396.66 360.00 400.00 360.00 C 400.00 366.67 400.00 373.33 400.00 380.00 C 393.33 380.00 386.67 380.01 380.00 380.00 C 379.99 376.67 379.99 373.33 380.00 370.00 C 383.33 370.00 386.66 370.01 389.99 370.01 C 390.00 366.67 390.00 363.33 390.00 360.00 Z" />
<path fill="#000000" opacity="1.00" d=" M 259.99 369.99 C 269.99 370.01 279.99 369.99 289.99 370.01 C 290.00 373.34 290.01 376.67 290.01 380.00 C 280.01 380.01 270.00 380.01 260.00 380.00 C 259.99 376.66 259.99 373.33 259.99 369.99 Z" />
<path fill="#000000" opacity="1.00" d=" M 249.99 380.00 C 253.33 379.99 256.66 379.99 260.00 380.00 C 260.01 386.66 260.00 393.33 260.00 400.00 C 256.67 400.00 253.33 400.00 250.00 400.00 C 250.01 393.33 250.00 386.67 249.99 380.00 Z" />
<path fill="#000000" opacity="1.00" d=" M 290.01 380.00 C 293.34 379.99 296.67 379.99 300.00 380.00 C 300.00 383.32 300.01 386.65 300.00 389.99 C 296.85 389.74 293.46 390.68 290.48 389.52 C 289.32 386.53 290.26 383.14 290.01 380.00 Z" />
<path fill="#000000" opacity="1.00" d=" M 150.19 390.19 C 153.42 389.68 156.74 390.06 160.00 390.02 C 160.00 393.34 160.00 396.67 160.00 400.00 C 156.67 400.00 153.35 400.00 150.03 400.00 C 150.05 396.73 149.68 393.42 150.19 390.19 Z" />
<path fill="#000000" opacity="1.00" d=" M 270.01 390.01 C 276.61 390.15 283.25 389.71 289.83 390.17 C 290.30 393.41 289.90 396.73 289.99 400.00 C 283.32 400.00 276.66 400.00 270.00 400.00 C 270.00 396.67 270.00 393.34 270.01 390.01 Z" />
<path fill="#000000" opacity="1.00" d=" M 330.00 389.99 C 333.33 389.99 336.66 389.98 340.00 390.00 C 340.00 393.33 340.00 396.66 340.00 400.00 C 336.67 400.00 333.33 400.00 330.00 400.00 C 330.00 396.66 330.00 393.32 330.00 389.99 Z" />
<path fill="#000000" opacity="1.00" d=" M 360.00 390.00 C 363.33 390.00 366.66 390.00 369.99 390.01 C 370.00 393.34 370.00 396.67 370.00 400.00 C 366.66 400.00 363.33 400.00 360.00 400.00 C 360.00 396.66 360.00 393.33 360.00 390.00 Z" />
<path fill="#000000" opacity="1.00" d=" M 390.01 390.01 C 393.34 390.00 396.67 390.00 400.00 390.00 C 400.00 393.33 400.00 396.66 400.00 400.00 C 396.66 400.00 393.33 400.00 390.00 400.00 C 390.00 396.67 390.00 393.34 390.01 390.01 Z" />
</g>
<g id="#95cf1eff">
<path fill="#95cf1e" opacity="1.00" d=" M 174.30 186.30 C 185.76 173.69 205.98 171.11 220.72 179.29 C 229.17 183.55 235.17 191.87 237.02 201.11 C 244.33 202.10 251.79 204.55 257.06 209.94 C 263.36 215.96 266.26 225.67 263.04 233.97 C 261.33 239.08 257.39 242.91 253.34 246.24 C 254.14 248.97 254.89 251.72 255.35 254.53 C 251.97 253.53 249.02 251.56 245.74 250.35 C 241.47 250.33 237.28 251.77 232.97 251.30 C 224.03 250.85 215.11 246.65 209.64 239.46 C 208.68 238.33 208.57 236.81 208.39 235.41 C 214.40 246.98 228.96 251.79 241.23 249.03 C 245.51 247.53 249.35 250.33 253.04 252.07 C 252.58 249.77 252.09 247.48 251.59 245.19 C 255.78 241.82 259.90 237.91 261.61 232.66 C 264.24 225.58 262.32 217.32 257.31 211.77 C 245.76 198.55 222.52 198.87 211.25 212.27 C 205.76 218.50 204.54 228.02 208.39 235.41 C 201.90 235.13 195.44 234.67 189.09 233.30 C 185.22 234.77 181.79 237.25 177.78 238.40 C 177.96 235.02 179.76 231.78 179.58 228.46 C 175.20 224.40 170.61 220.18 168.70 214.32 C 164.98 204.90 167.41 193.64 174.30 186.30 M 189.47 189.55 C 187.29 190.18 186.00 192.56 186.35 194.76 C 186.93 198.12 191.83 200.22 194.18 197.18 C 198.03 194.17 193.72 187.83 189.47 189.55 M 213.46 189.54 C 209.95 190.48 209.09 195.83 212.31 197.67 C 215.50 200.74 221.07 196.32 219.42 192.48 C 218.76 189.93 215.84 188.78 213.46 189.54 Z" />
</g>
</svg>
